STARTFONT 2.1
FONT -HP-Pilgi-Bold-R-Normal--32-320-75-75-C-160-KSC5636.1989-0
SIZE 32 75 75
FONTBOUNDINGBOX 16 32 0 -2

STARTPROPERTIES 23
FONTNAME_REGISTRY ""
FOUNDRY "HP"
FAMILY_NAME "Pilgi"
WEIGHT_NAME "Bold"
SLANT "R"
SETWIDTH_NAME "Normal"
ADD_STYLE_NAME ""
PIXEL_SIZE 32
POINT_SIZE 320
RESOLUTION_X 75
RESOLUTION_Y 75
SPACING "C"
AVERAGE_WIDTH 160
CHARSET_REGISTRY "KSC5636.1989"
CHARSET_ENCODING "0"
COPYRIGHT "Copyright (c) 1994 Samsung Hewlett-Packard Company."
WEIGHT 160
X_HEIGHT 30
QUAD_WIDTH 16
_HP_ASXVERSION "@(#) ASX 3.00 $Revision: 13.9 $ pilB32a"
DEFAULT_CHAR 32
FONT_DESCENT 2
FONT_ASCENT 30
ENDPROPERTIES

CHARS 256

STARTCHAR CODE000
ENCODING 0
SWIDTH 451 0
DWIDTH 16 0
BBX 16 32 0 -2
BITMAP
0000
0000
0000
0000
0000
0000
0000
0000
0000
0000
0000
0000
0000
0000
0000
0000
0000
0000
0000
0000
0000
0000
0000
0000
0000
0000
0000
0000
0000
0000
0000
0000
ENDCHAR

STARTCHAR CODE001
ENCODING 1
SWIDTH 451 0
DWIDTH 16 0
BBX 16 32 0 -2
BITMAP
0000
0000
03C0
0FF0
1FF8
3E7C
781E
700F
EE37
DF7B
DF7B
DF7B
CE33
C003
C003
D81B
D81B
DC3B
DFF3
EFE7
73CF
780F
3C3E
1FFC
0FF8
03E0
0000
0000
0000
0000
0000
0000
ENDCHAR

STARTCHAR CODE002
ENCODING 2
SWIDTH 451 0
DWIDTH 16 0
BBX 16 32 0 -2
BITMAP
0000
0000
03E0
0FF8
1FFC
3FFC
3FFE
7FFE
7FFF
7BEF
F1C7
FBEF
FFFF
FFFF
FFFF
FFFF
FFFF
EFF7
6FF7
77EF
799E
3C3E
3FFC
1FFC
0FF8
03E0
0000
0000
0000
0000
0000
0000
ENDCHAR

STARTCHAR CODE003
ENCODING 3
SWIDTH 451 0
DWIDTH 16 0
BBX 16 32 0 -2
BITMAP
0000
0E38
1F7C
3F7E
3FFE
7FFF
7FFF
7FFF
7FFF
7FFF
7FFF
7FFF
3FFE
3FFE
3FFE
1FFC
1FFC
1FFC
0FF8
0FF8
07F0
07F0
07F0
03E0
03E0
01C0
01C0
0080
0000
0000
0000
0000
ENDCHAR

STARTCHAR CODE004
ENCODING 4
SWIDTH 451 0
DWIDTH 16 0
BBX 16 32 0 -2
BITMAP
0080
0080
01C0
01C0
03E0
03E0
07F0
07F0
0FF8
0FF8
1FFC
1FFC
3FFE
3FFE
7FFF
7FFF
3FFE
3FFE
1FFC
1FFC
0FF8
0FF8
07F0
07F0
03E0
03E0
01C0
01C0
0080
0080
0000
0000
ENDCHAR

STARTCHAR CODE005
ENCODING 5
SWIDTH 451 0
DWIDTH 16 0
BBX 16 32 0 -2
BITMAP
0000
01C0
07F0
07F0
0FF8
0FF8
0FF8
0FF8
0FF8
0FF8
07F0
37EC
7BDE
7FFE
FFFF
FFFF
FFFF
FFFF
FFFF
FFFF
7FFE
7DBE
3D9C
0180
0180
03C0
0FF0
0FF0
0FF0
0000
0000
0000
ENDCHAR

STARTCHAR CODE006
ENCODING 6
SWIDTH 451 0
DWIDTH 16 0
BBX 16 32 0 -2
BITMAP
0000
0180
0180
03C0
03C0
07E0
07E0
0FF0
0FF0
1FF8
1FF8
3FFC
3FFC
7FFE
7FFE
7FFE
FFFF
FFFF
FFFF
FFFF
FFFF
FFFF
7DBE
399C
0180
0180
03C0
1FF8
1FF8
1FF8
0000
0000
ENDCHAR

STARTCHAR CODE007
ENCODING 7
SWIDTH 451 0
DWIDTH 16 0
BBX 16 32 0 -2
BITMAP
0000
0000
0000
0000
0000
0000
0000
0000
01E0
07F8
0FFC
1FFE
1FFE
3FFF
3FFF
3FFF
3FFF
1FFE
1FFE
0FFC
07F8
01E0
0000
0000
0000
0000
0000
0000
0000
0000
0000
0000
ENDCHAR

STARTCHAR CODE008
ENCODING 8
SWIDTH 451 0
DWIDTH 16 0
BBX 16 32 0 -2
BITMAP
0000
0000
0000
FFFF
FFFF
FFFF
FFFF
FFFF
FFFF
FFFF
FE3F
F80F
F007
F007
E003
E003
E003
F007
F007
F80F
FE3F
FFFF
FFFF
FFFF
FFFF
FFFF
FFFF
FFFF
0000
0000
0000
0000
ENDCHAR

STARTCHAR CODE009
ENCODING 9
SWIDTH 451 0
DWIDTH 16 0
BBX 16 32 0 -2
BITMAP
0000
0000
0000
0000
0000
0000
0000
0000
0000
0000
03F0
0FFC
0FFC
1F3E
1E1E
1C0E
1C0E
1E1E
1F3E
0FFC
0FFC
03F0
0000
0000
0000
0000
0000
0000
0000
0000
0000
0000
ENDCHAR

STARTCHAR CODE010
ENCODING 10
SWIDTH 451 0
DWIDTH 16 0
BBX 16 32 0 -2
BITMAP
0000
0000
0000
FFFF
FFFF
FFFF
FFFF
FFFF
FFFF
FFFF
FE7F
F81F
F18F
F3CF
E7E7
E7E7
E7E7
F3CF
F18F
F81F
FE7F
FFFF
FFFF
FFFF
FFFF
FFFF
FFFF
FFFF
0000
0000
0000
0000
ENDCHAR

STARTCHAR CODE011
ENCODING 11
SWIDTH 451 0
DWIDTH 16 0
BBX 16 32 0 -2
BITMAP
0000
0000
0000
0000
007F
007F
007F
000F
001F
001F
003B
0033
0073
00F0
0FE0
3FE0
7FF0
7DF0
F078
F078
E038
F078
F078
7DF0
7FF0
3FE0
0FC0
0000
0000
0000
0000
0000
ENDCHAR

STARTCHAR CODE012
ENCODING 12
SWIDTH 451 0
DWIDTH 16 0
BBX 16 32 0 -2
BITMAP
0000
07F0
1FFC
3FFE
3E3E
780F
780F
7007
7007
780F
780F
3E3E
3FFE
1FFC
07F0
01C0
01C0
7FFF
7FFF
7FFF
01C0
01C0
01C0
01C0
01C0
01C0
01C0
01C0
01C0
01C0
0000
0000
ENDCHAR

STARTCHAR CODE013
ENCODING 13
SWIDTH 451 0
DWIDTH 16 0
BBX 16 32 0 -2
BITMAP
0000
0600
0700
0780
07C0
07E0
07F0
07F8
07FC
077E
073F
071F
070F
0707
0703
0703
0707
0707
070F
070E
071C
0738
0730
1F00
3F00
7F00
7E00
7E00
3C00
0000
0000
0000
ENDCHAR

STARTCHAR CODE014
ENCODING 14
SWIDTH 451 0
DWIDTH 16 0
BBX 16 32 0 -2
BITMAP
0000
0000
0007
003F
01FF
0FFF
0FF3
0F8F
0E3F
0EFF
0FFB
0FF3
0F83
0E03
0E03
0E03
0E03
0E03
0E03
0E0F
0E1F
0E3F
3E3F
7E3F
FE3E
FC1C
FC00
F800
7000
0000
0000
0000
ENDCHAR

STARTCHAR CODE015
ENCODING 15
SWIDTH 451 0
DWIDTH 16 0
BBX 16 32 0 -2
BITMAP
0000
0000
0000
0000
01C0
01C0
01C0
C1C1
E7F3
FFFF
FFFF
7E3F
380E
780E
7007
F007
F007
F007
780E
780E
FE3F
FFFF
DFFB
C7F1
01C0
01C0
01C0
01C0
0000
0000
0000
0000
ENDCHAR

STARTCHAR CODE016
ENCODING 16
SWIDTH 451 0
DWIDTH 16 0
BBX 16 32 0 -2
BITMAP
8000
C000
E000
F000
F800
FC00
FE00
FF00
FF80
FFC0
FFE0
FFF0
FFF8
FFFC
FFFE
FFFF
FFFE
FFFC
FFF8
FFF0
FFE0
FFC0
FF80
FF00
FE00
FC00
F800
F000
E000
C000
8000
0000
ENDCHAR

STARTCHAR CODE017
ENCODING 17
SWIDTH 451 0
DWIDTH 16 0
BBX 16 32 0 -2
BITMAP
0000
0001
0003
0007
000F
001F
003F
007F
00FF
01FF
03FF
07FF
0FFF
1FFF
3FFF
7FFF
3FFF
1FFF
0FFF
07FF
03FF
01FF
00FF
007F
003F
001F
000F
0007
0003
0001
0000
0000
ENDCHAR

STARTCHAR CODE018
ENCODING 18
SWIDTH 451 0
DWIDTH 16 0
BBX 16 32 0 -2
BITMAP
0000
01C0
03E0
07F0
0FF8
1FFC
3DDE
31C6
01C0
01C0
01C0
01C0
01C0
01C0
01C0
01C0
01C0
01C0
01C0
01C0
01C0
01C0
01C0
31C6
3DDE
1FFC
0FF8
07F0
03E0
01C0
0000
0000
ENDCHAR

STARTCHAR CODE019
ENCODING 19
SWIDTH 451 0
DWIDTH 16 0
BBX 16 32 0 -2
BITMAP
0000
0000
0E38
0E38
0E38
0E38
0E38
0E38
0E38
0E38
0E38
0E38
0E38
0E38
0E38
0E38
0E38
0E38
0E38
0E38
0000
0000
0E38
1F7C
1F7C
1F7C
0E38
0000
0000
0000
0000
0000
ENDCHAR

STARTCHAR CODE020
ENCODING 20
SWIDTH 451 0
DWIDTH 16 0
BBX 16 32 0 -2
BITMAP
0000
0FFF
3FFF
7FFF
FCE7
F0E7
F0E7
E0E7
E0E7
F0E7
F0E7
FCE7
7FE7
3FE7
0FE7
00E7
00E7
00E7
00E7
00E7
00E7
00E7
00E7
00E7
00E7
00E7
00E7
00E7
00E7
00E7
0000
0000
ENDCHAR

STARTCHAR CODE021
ENCODING 21
SWIDTH 451 0
DWIDTH 16 0
BBX 16 32 0 -2
BITMAP
0000
000E
07EE
1FFE
3FFE
7C3F
780F
7807
73C7
7FF7
3FF8
3E78
1FB8
1FF8
1BF8
1DFC
1E7E
0FFE
03DF
700F
700F
7007
780F
7E3F
3FFE
3FFC
3BF0
3800
0000
0000
0000
0000
ENDCHAR

STARTCHAR CODE022
ENCODING 22
SWIDTH 451 0
DWIDTH 16 0
BBX 16 32 0 -2
BITMAP
0000
0000
0000
0000
0000
0000
0000
0000
0000
FFFF
FFFF
FFFF
FFFF
FFFF
FFFF
FFFF
FFFF
FFFF
FFFF
FFFF
FFFF
FFFF
0000
0000
0000
0000
0000
0000
0000
0000
0000
0000
ENDCHAR

STARTCHAR CODE023
ENCODING 23
SWIDTH 451 0
DWIDTH 16 0
BBX 16 32 0 -2
BITMAP
0000
01C0
03E0
07F0
0FF8
1FFC
3DDE
31C6
01C0
01C0
01C0
01C0
01C0
01C0
01C0
01C0
01C0
01C0
01C0
01C0
01C0
19CC
1DDC
0FF8
07F0
03E0
01C0
FFFF
FFFF
FFFF
0000
0000
ENDCHAR

STARTCHAR CODE024
ENCODING 24
SWIDTH 451 0
DWIDTH 16 0
BBX 16 32 0 -2
BITMAP
0000
01C0
03E0
07F0
0FF8
1FFC
3DDE
31C6
01C0
01C0
01C0
01C0
01C0
01C0
01C0
01C0
01C0
01C0
01C0
01C0
01C0
01C0
01C0
01C0
01C0
01C0
01C0
01C0
01C0
01C0
0000
0000
ENDCHAR

STARTCHAR CODE025
ENCODING 25
SWIDTH 451 0
DWIDTH 16 0
BBX 16 32 0 -2
BITMAP
0000
01C0
01C0
01C0
01C0
01C0
01C0
01C0
01C0
01C0
01C0
01C0
01C0
01C0
01C0
01C0
01C0
01C0
01C0
01C0
01C0
01C0
01C0
31C6
3DDE
1FFC
0FF8
07F0
03E0
01C0
0000
0000
ENDCHAR

STARTCHAR CODE026
ENCODING 26
SWIDTH 451 0
DWIDTH 16 0
BBX 16 32 0 -2
BITMAP
0000
0000
0000
0000
0000
0000
0000
0000
0000
0000
0030
0038
001C
000E
7FFF
7FFF
7FFF
000E
001C
0038
0030
0000
0000
0000
0000
0000
0000
0000
0000
0000
0000
0000
ENDCHAR

STARTCHAR CODE027
ENCODING 27
SWIDTH 451 0
DWIDTH 16 0
BBX 16 32 0 -2
BITMAP
0000
0000
0000
0000
0000
0000
0000
0000
0000
0000
0600
0E00
1C00
3800
7FFF
7FFF
7FFF
3800
1C00
0E00
0600
0000
0000
0000
0000
0000
0000
0000
0000
0000
0000
0000
ENDCHAR

STARTCHAR CODE028
ENCODING 28
SWIDTH 451 0
DWIDTH 16 0
BBX 16 32 0 -2
BITMAP
0000
0000
0000
0000
0000
0000
0000
0000
7000
7000
7000
7000
7000
7000
7000
7000
7000
7000
7000
7000
7000
7FFF
7FFF
7FFF
0000
0000
0000
0000
0000
0000
0000
0000
ENDCHAR

STARTCHAR CODE029
ENCODING 29
SWIDTH 451 0
DWIDTH 16 0
BBX 16 32 0 -2
BITMAP
0000
0000
0000
0000
0000
0000
0000
0000
0000
0000
0000
0C18
1C1C
380E
7FFF
7FFF
7FFF
380E
1C1C
0C18
0000
0000
0000
0000
0000
0000
0000
0000
0000
0000
0000
0000
ENDCHAR

STARTCHAR CODE030
ENCODING 30
SWIDTH 451 0
DWIDTH 16 0
BBX 16 32 0 -2
BITMAP
0000
0000
0000
0080
0080
01C0
01C0
01C0
03E0
03E0
03E0
07F0
07F0
07F0
0FF8
0FF8
0FF8
1FFC
1FFC
1FFC
3FFE
3FFE
3FFE
7FFF
7FFF
0000
0000
0000
0000
0000
0000
0000
ENDCHAR

STARTCHAR CODE031
ENCODING 31
SWIDTH 451 0
DWIDTH 16 0
BBX 16 32 0 -2
BITMAP
0000
0000
0000
0000
0000
7FFF
7FFF
3FFE
3FFE
3FFE
1FFC
1FFC
1FFC
0FF8
0FF8
0FF8
07F0
07F0
07F0
03E0
03E0
03E0
01C0
01C0
01C0
0080
0080
0000
0000
0000
0000
0000
ENDCHAR

STARTCHAR CODE032
ENCODING 32
SWIDTH 451 0
DWIDTH 16 0
BBX 16 32 0 -2
BITMAP
0000
0000
0000
0000
0000
0000
0000
0000
0000
0000
0000
0000
0000
0000
0000
0000
0000
0000
0000
0000
0000
0000
0000
0000
0000
0000
0000
0000
0000
0000
0000
0000
ENDCHAR

STARTCHAR CODE033
ENCODING 33
SWIDTH 451 0
DWIDTH 16 0
BBX 16 32 0 -2
BITMAP
0000
0000
0000
0000
0070
0070
00F0
00E0
00E0
00E0
01E0
01C0
01C0
01C0
03C0
0380
0380
0380
0780
0700
0700
0700
0700
0800
1E00
1E00
1E00
0C00
0000
0000
0000
0000
ENDCHAR

STARTCHAR CODE034
ENCODING 34
SWIDTH 451 0
DWIDTH 16 0
BBX 16 32 0 -2
BITMAP
0000
0000
0000
0770
0778
07F8
03B8
03B8
07F8
0F70
0EE0
0000
0000
0000
0000
0000
0000
0000
0000
0000
0000
0000
0000
0000
0000
0000
0000
0000
0000
0000
0000
0000
ENDCHAR

STARTCHAR CODE035
ENCODING 35
SWIDTH 451 0
DWIDTH 16 0
BBX 16 32 0 -2
BITMAP
0000
0000
0000
0000
0000
0000
0000
0000
0000
0370
0370
0370
0370
3FFE
FFFF
FFFF
E6E3
3FFE
FFFF
E6E3
06E0
06E0
06E0
06E0
06E0
06E0
0000
0000
0000
0000
0000
0000
ENDCHAR

STARTCHAR CODE036
ENCODING 36
SWIDTH 451 0
DWIDTH 16 0
BBX 16 32 0 -2
BITMAP
0000
0000
0000
0000
001C
001C
003C
0038
01F8
03FC
07FE
0F7E
0F6E
0EFE
0EDC
07E0
07E0
03C0
01F0
1BF0
3B78
3BB8
3FF8
3778
3EF0
1FF0
0FC0
0E00
0E00
0000
0000
0000
ENDCHAR

STARTCHAR CODE037
ENCODING 37
SWIDTH 451 0
DWIDTH 16 0
BBX 16 32 0 -2
BITMAP
0000
0000
0000
0000
0000
0000
3E1C
7F1C
7F3C
F738
E778
E770
E7F0
EEE0
FFE0
FDC0
7FFE
03BF
077F
07F7
0EE7
0EE7
1EEF
1CFE
3CFE
387C
3800
0000
0000
0000
0000
0000
ENDCHAR

STARTCHAR CODE038
ENCODING 38
SWIDTH 451 0
DWIDTH 16 0
BBX 16 32 0 -2
BITMAP
0000
0000
0000
0000
0000
0780
0FC0
1FE0
1DE0
1CE0
1DE0
1DE0
1FC0
0FC0
0FBF
1F7F
1FFF
3B8E
39DE
79DC
70FC
70F8
7078
78FC
3FFF
3FDF
0F8F
0000
0000
0000
0000
0000
ENDCHAR

STARTCHAR CODE039
ENCODING 39
SWIDTH 451 0
DWIDTH 16 0
BBX 16 32 0 -2
BITMAP
0000
0000
0000
01C0
01E0
01E0
00E0
00E0
01E0
03C0
0380
0000
0000
0000
0000
0000
0000
0000
0000
0000
0000
0000
0000
0000
0000
0000
0000
0000
0000
0000
0000
0000
ENDCHAR

STARTCHAR CODE040
ENCODING 40
SWIDTH 451 0
DWIDTH 16 0
BBX 16 32 0 -2
BITMAP
0000
0038
0038
0078
0070
00F0
00E0
01E0
01C0
01C0
03C0
0380
0380
0380
0780
0700
0700
0700
0700
0700
0700
0700
0700
0700
0780
0380
0380
03C0
01C0
01C0
0000
0000
ENDCHAR

STARTCHAR CODE041
ENCODING 41
SWIDTH 451 0
DWIDTH 16 0
BBX 16 32 0 -2
BITMAP
0000
0380
0380
03C0
01C0
01C0
01E0
00E0
00E0
00E0
00E0
00E0
00E0
00E0
00E0
01E0
01C0
01C0
01C0
03C0
0380
0380
0780
0700
0F00
0E00
1E00
1C00
3C00
3800
3800
0000
ENDCHAR

STARTCHAR CODE042
ENCODING 42
SWIDTH 451 0
DWIDTH 16 0
BBX 16 32 0 -2
BITMAP
0000
0000
0000
0000
0000
0000
0000
0000
0000
0000
01C0
39C0
3DC0
3DC0
1FFC
0FFC
03FC
0FE0
1EF8
1E78
1C38
0000
0000
0000
0000
0000
0000
0000
0000
0000
0000
0000
ENDCHAR

STARTCHAR CODE043
ENCODING 43
SWIDTH 451 0
DWIDTH 16 0
BBX 16 32 0 -2
BITMAP
0000
0000
0000
0000
0000
0000
0000
0000
0000
00E0
00E0
00E0
01E0
01C0
0FF8
3FFE
3FFE
39CE
01C0
01C0
01C0
01C0
0000
0000
0000
0000
0000
0000
0000
0000
0000
0000
ENDCHAR

STARTCHAR CODE044
ENCODING 44
SWIDTH 451 0
DWIDTH 16 0
BBX 16 32 0 -2
BITMAP
0000
0000
0000
0000
0000
0000
0000
0000
0000
0000
0000
0000
0000
0000
0000
0000
0000
0000
0000
0000
0000
0000
0000
1C00
1E00
1E00
0E00
0E00
1E00
3C00
3800
0000
ENDCHAR

STARTCHAR CODE045
ENCODING 45
SWIDTH 451 0
DWIDTH 16 0
BBX 16 32 0 -2
BITMAP
0000
0000
0000
0000
0000
0000
0000
0000
0000
0000
0000
0000
0000
0000
1FFC
1FFC
1FFC
0000
0000
0000
0000
0000
0000
0000
0000
0000
0000
0000
0000
0000
0000
0000
ENDCHAR

STARTCHAR CODE046
ENCODING 46
SWIDTH 451 0
DWIDTH 16 0
BBX 16 32 0 -2
BITMAP
0000
0000
0000
0000
0000
0000
0000
0000
0000
0000
0000
0000
0000
0000
0000
0000
0000
0000
0000
0000
0000
0000
0000
0000
1C00
3E00
3E00
3E00
1C00
0000
0000
0000
ENDCHAR

STARTCHAR CODE047
ENCODING 47
SWIDTH 451 0
DWIDTH 16 0
BBX 16 32 0 -2
BITMAP
0000
0000
0000
0007
0007
000F
000F
001E
001E
003C
003C
0078
0078
00F0
00F0
01E0
01E0
03C0
03C0
0780
0780
0F00
0F00
1E00
1E00
3C00
3C00
3800
3800
0000
0000
0000
ENDCHAR

STARTCHAR CODE048
ENCODING 48
SWIDTH 451 0
DWIDTH 16 0
BBX 16 32 0 -2
BITMAP
0000
0000
0000
0000
0000
0000
0000
0000
00F0
03F8
07F8
07BC
0F3C
0F1C
1E1C
1E1C
1C1C
1C1C
1C3C
1C3C
1C78
1E78
1FF0
0DF0
0FE0
0780
0000
0000
0000
0000
0000
0000
ENDCHAR

STARTCHAR CODE049
ENCODING 49
SWIDTH 451 0
DWIDTH 16 0
BBX 16 32 0 -2
BITMAP
0000
0000
0000
0000
0000
0000
0000
0000
0070
00F0
03F0
0FF0
0F70
0EE0
00E0
01E0
01C0
01C0
01C0
01C0
03C0
0380
0380
0380
0380
0380
0000
0000
0000
0000
0000
0000
ENDCHAR

STARTCHAR CODE050
ENCODING 50
SWIDTH 451 0
DWIDTH 16 0
BBX 16 32 0 -2
BITMAP
0000
0000
0000
0000
0000
0000
0000
0000
01F0
07F8
0FFC
0F3C
0E1C
003C
003C
0078
00F8
01F0
03E0
07C0
0F80
1F00
3EF0
3BF0
3FF0
3E00
0000
0000
0000
0000
0000
0000
ENDCHAR

STARTCHAR CODE051
ENCODING 51
SWIDTH 451 0
DWIDTH 16 0
BBX 16 32 0 -2
BITMAP
0000
0000
0000
0000
0000
0000
0000
0000
03E0
0FF0
0FF8
0E78
0038
0078
03F8
03F0
03F8
0078
003C
003C
1C1C
1C3C
1E3C
1FF8
0FF8
07F0
0000
0000
0000
0000
0000
0000
ENDCHAR

STARTCHAR CODE052
ENCODING 52
SWIDTH 451 0
DWIDTH 16 0
BBX 16 32 0 -2
BITMAP
0000
0000
0000
0000
0000
0000
0000
0000
0078
00F8
00F8
01F8
03B8
03F8
0770
0770
0FF0
0EEC
1FFC
1FFC
1FE0
00E0
01C0
01C0
01C0
01C0
0000
0000
0000
0000
0000
0000
ENDCHAR

STARTCHAR CODE053
ENCODING 53
SWIDTH 451 0
DWIDTH 16 0
BBX 16 32 0 -2
BITMAP
0000
0000
0000
0000
0000
0000
0000
0000
0FFC
0FFC
0FFC
0700
0700
0F00
0EC0
0DF0
0FF0
0F78
0038
0038
1C38
1C78
1EF0
1FF0
0FE0
0780
0000
0000
0000
0000
0000
0000
ENDCHAR

STARTCHAR CODE054
ENCODING 54
SWIDTH 451 0
DWIDTH 16 0
BBX 16 32 0 -2
BITMAP
0000
0000
0000
0000
0000
0000
0000
0000
0070
00F0
01F0
03E0
07C0
0F80
0F60
1DF8
1FF8
1F3C
1E1C
1C1C
1C1C
1E1C
1F3C
0FF8
07F8
03E0
0000
0000
0000
0000
0000
0000
ENDCHAR

STARTCHAR CODE055
ENCODING 55
SWIDTH 451 0
DWIDTH 16 0
BBX 16 32 0 -2
BITMAP
0000
0000
0000
0000
0000
0000
0000
0000
0FFC
0FFC
0FFC
001C
0038
0078
0070
00F0
00E0
01E0
01C0
03C0
0380
0380
0780
0700
0700
0700
0000
0000
0000
0000
0000
0000
ENDCHAR

STARTCHAR CODE056
ENCODING 56
SWIDTH 451 0
DWIDTH 16 0
BBX 16 32 0 -2
BITMAP
0000
0000
0000
0000
0000
0000
0000
0000
03E0
07F0
0FF8
0F78
0E38
0FF8
07F0
03E0
0FF0
0F70
1E78
1C38
3C38
3838
3C78
1FF0
1FF0
07C0
0000
0000
0000
0000
0000
0000
ENDCHAR

STARTCHAR CODE057
ENCODING 57
SWIDTH 451 0
DWIDTH 16 0
BBX 16 32 0 -2
BITMAP
0000
0000
0000
0000
0000
0000
0000
0000
03E0
0FF8
0FF8
1E3C
1C1C
1C1C
1C1C
1E3C
0FFC
0FF8
03F8
0038
0070
00F0
00E0
01E0
01C0
01C0
0000
0000
0000
0000
0000
0000
ENDCHAR

STARTCHAR CODE058
ENCODING 58
SWIDTH 451 0
DWIDTH 16 0
BBX 16 32 0 -2
BITMAP
0000
0000
0000
0000
0000
0000
0000
0000
0000
0000
01C0
03E0
03E0
03E0
01C0
0000
0000
0000
0000
0380
07C0
07C0
07C0
0380
0000
0000
0000
0000
0000
0000
0000
0000
ENDCHAR

STARTCHAR CODE059
ENCODING 59
SWIDTH 451 0
DWIDTH 16 0
BBX 16 32 0 -2
BITMAP
0000
0000
0000
0000
0000
0000
0000
0000
0000
0000
01C0
03E0
03E0
03E0
01C0
0000
0000
0000
0000
0380
07C0
07C0
03C0
01C0
03C0
0780
0700
0000
0000
0000
0000
0000
ENDCHAR

STARTCHAR CODE060
ENCODING 60
SWIDTH 451 0
DWIDTH 16 0
BBX 16 32 0 -2
BITMAP
0000
0000
0000
0000
0000
0000
0000
0038
0078
00F8
01F0
03E0
07C0
0F80
1F00
1E00
1C00
0E00
0E00
0F00
0700
0700
0780
0380
03C0
01C0
01E0
00E0
00E0
0000
0000
0000
ENDCHAR

STARTCHAR CODE061
ENCODING 61
SWIDTH 451 0
DWIDTH 16 0
BBX 16 32 0 -2
BITMAP
0000
0000
0000
0000
0000
0000
0000
0000
0000
0000
0000
0000
07FC
7FFF
7FFF
7C07
03F8
7FFF
7FFF
7C07
0000
0000
0000
0000
0000
0000
0000
0000
0000
0000
0000
0000
ENDCHAR

STARTCHAR CODE062
ENCODING 62
SWIDTH 451 0
DWIDTH 16 0
BBX 16 32 0 -2
BITMAP
0000
0000
0000
0000
0000
0000
0700
0700
0780
0380
03C0
01C0
01E0
00E0
00E0
00F0
0070
0070
0078
0038
0078
00F8
01F0
03E0
07C0
0F80
1F00
1E00
1C00
0000
0000
0000
ENDCHAR

STARTCHAR CODE063
ENCODING 63
SWIDTH 451 0
DWIDTH 16 0
BBX 16 32 0 -2
BITMAP
0000
0000
0000
01E0
07F8
0FF8
1F3C
1E1C
1C3C
003C
0078
00F8
01F0
03E0
07C0
0780
0F00
0F00
0E00
0E00
0E00
0000
0000
0E00
1F00
1F00
1F00
0E00
0000
0000
0000
0000
ENDCHAR

STARTCHAR CODE064
ENCODING 64
SWIDTH 451 0
DWIDTH 16 0
BBX 16 32 0 -2
BITMAP
0000
0000
0000
0000
01F0
07FC
0FFE
1F1E
3EEF
3DF7
7BF7
7777
7737
7F77
6E77
6EF7
6EE7
6FE7
6DEF
7FFE
76FE
387C
3C00
1FF8
1FF8
07E0
0000
0000
0000
0000
0000
0000
ENDCHAR

STARTCHAR CODE065
ENCODING 65
SWIDTH 451 0
DWIDTH 16 0
BBX 16 32 0 -2
BITMAP
0000
0000
0000
001E
003E
007E
007E
00EE
00EE
01EE
01CE
03CE
038E
079F
077F
7FFF
7FEE
7F0E
0E0E
1E0E
1C0E
1C0E
3C0E
380E
380F
3807
3807
0000
0000
0000
0000
0000
ENDCHAR

STARTCHAR CODE066
ENCODING 66
SWIDTH 451 0
DWIDTH 16 0
BBX 16 32 0 -2
BITMAP
0000
0000
0000
0FF0
3FFC
3FFC
371E
070E
070E
0F1E
0E7C
0FFC
0FF0
1FC0
1FF8
1CF8
1C3C
3C1C
381C
381C
383C
7838
7078
7FF0
7FF0
7FC0
7000
0000
0000
0000
0000
0000
ENDCHAR

STARTCHAR CODE067
ENCODING 67
SWIDTH 451 0
DWIDTH 16 0
BBX 16 32 0 -2
BITMAP
0000
0000
0000
00F8
01FC
03FE
07DE
078E
0F0E
0E0E
1E1E
1C3C
1C3C
3C38
3800
3800
3800
380E
380E
380E
381E
381C
3C3C
1E78
1FF8
0FF0
03C0
0000
0000
0000
0000
0000
ENDCHAR

STARTCHAR CODE068
ENCODING 68
SWIDTH 451 0
DWIDTH 16 0
BBX 16 32 0 -2
BITMAP
0000
0000
0000
0FF0
3FFC
3FFC
3E1E
0E0E
0E0F
0E07
1E07
1C07
1C07
1C07
1C07
3C07
380F
380E
380E
381E
383C
787C
70F8
73F0
7FE0
7F80
3E00
0000
0000
0000
0000
0000
ENDCHAR

STARTCHAR CODE069
ENCODING 69
SWIDTH 451 0
DWIDTH 16 0
BBX 16 32 0 -2
BITMAP
0000
0000
0000
003F
0FFF
0FFF
0FE0
0700
0700
0F00
0E00
0E00
1EF8
1DF8
1FF8
1F80
3C00
3800
3800
3800
7800
7000
73F0
7FF0
7FF0
7E00
7000
0000
0000
0000
0000
0000
ENDCHAR

STARTCHAR CODE070
ENCODING 70
SWIDTH 451 0
DWIDTH 16 0
BBX 16 32 0 -2
BITMAP
0000
0000
0000
07FF
1FFF
1FFF
1B80
0700
0F00
0E00
0E00
1EF8
1DF8
1FF8
1F80
3C00
3800
3800
3800
3800
7800
7000
7000
7000
7000
7000
7000
0000
0000
0000
0000
0000
ENDCHAR

STARTCHAR CODE071
ENCODING 71
SWIDTH 451 0
DWIDTH 16 0
BBX 16 32 0 -2
BITMAP
0000
0000
0000
00F0
03FC
07FC
0F9E
0F0E
1E0E
1C1E
3C3C
383C
3838
7800
703E
70FE
70FE
70EE
701E
781C
383C
3CFC
1FFC
1FDC
07B8
0038
0038
0000
0000
0000
0000
0000
ENDCHAR

STARTCHAR CODE072
ENCODING 72
SWIDTH 451 0
DWIDTH 16 0
BBX 16 32 0 -2
BITMAP
0000
0000
0000
0383
0383
0783
0707
0707
0707
0F0F
0E0E
0E0E
0E1E
1E1D
1DFF
1FFF
7FFC
7F1C
7838
3838
3838
7878
7070
7070
7070
7070
7070
0000
0000
0000
0000
0000
ENDCHAR

STARTCHAR CODE073
ENCODING 73
SWIDTH 451 0
DWIDTH 16 0
BBX 16 32 0 -2
BITMAP
0000
0000
0000
0038
0038
0038
0078
0070
0070
00F0
00E0
00E0
00E0
01E0
01C0
01C0
01C0
03C0
0380
0380
0380
0780
0700
0700
0700
0700
0700
0000
0000
0000
0000
0000
ENDCHAR

STARTCHAR CODE074
ENCODING 74
SWIDTH 451 0
DWIDTH 16 0
BBX 16 32 0 -2
BITMAP
0000
0000
0000
003F
03FF
03FF
03DC
001C
003C
0038
0038
0038
0078
0070
0070
7070
7070
7070
F0F0
E0E0
E0E0
E0E0
F1E0
7BC0
7FC0
3F80
1E00
0000
0000
0000
0000
0000
ENDCHAR

STARTCHAR CODE075
ENCODING 75
SWIDTH 451 0
DWIDTH 16 0
BBX 16 32 0 -2
BITMAP
0000
0000
0000
0380
0380
0383
038F
07BF
077E
06F8
0FE0
0FC0
0F80
0FC0
1DC0
1DC0
1DC0
3DC0
39C0
39C7
39C7
79C7
71EF
71FE
70FE
7078
7000
0000
0000
0000
0000
0000
ENDCHAR

STARTCHAR CODE076
ENCODING 76
SWIDTH 451 0
DWIDTH 16 0
BBX 16 32 0 -2
BITMAP
0000
0000
0000
0038
0038
0078
0070
00F0
00E0
01E0
01C0
03C0
0380
0380
0780
0700
0700
0F00
0E00
0E00
1E00
1C00
1C00
1DFC
1FFC
1FFC
0F00
0000
0000
0000
0000
0000
ENDCHAR

STARTCHAR CODE077
ENCODING 77
SWIDTH 451 0
DWIDTH 16 0
BBX 16 32 0 -2
BITMAP
0000
0000
0000
0003
0387
078F
0F8F
0F9F
1F9B
1B9F
1BBF
3FB7
3737
3777
377F
776E
77EE
76EE
76EE
76EE
77EE
F3CE
E38E
E00E
E00F
E007
E007
0000
0000
0000
0000
0000
ENDCHAR

STARTCHAR CODE078
ENCODING 78
SWIDTH 451 0
DWIDTH 16 0
BBX 16 32 0 -2
BITMAP
0000
0000
0000
0003
0383
0787
0787
0F87
0F87
1F8F
1B8E
1B8E
3B8E
3B9E
3B9C
3BDC
79DC
71FC
71B8
71B8
F1B8
E1F8
E0F8
E0F0
E0F0
E070
E070
0000
0000
0000
0000
0000
ENDCHAR

STARTCHAR CODE079
ENCODING 79
SWIDTH 451 0
DWIDTH 16 0
BBX 16 32 0 -2
BITMAP
0000
0000
0000
07F0
1FFC
1FFE
1B9E
070F
0F0F
0E07
1E07
1C07
1C07
3C07
3807
380F
780E
700E
701E
701C
703C
7838
7878
3CF0
3FF0
1FE0
0F80
0000
0000
0000
0000
0000
ENDCHAR

STARTCHAR CODE080
ENCODING 80
SWIDTH 451 0
DWIDTH 16 0
BBX 16 32 0 -2
BITMAP
0000
0000
0000
03F0
0FFC
3FFE
3E1E
3E0F
0E0F
0E07
0E0F
0E0F
0E1E
1E3E
3DFC
3FF8
3FE0
1C00
3800
3800
3800
3800
3800
7800
7000
7000
7000
0000
0000
0000
0000
0000
ENDCHAR

STARTCHAR CODE081
ENCODING 81
SWIDTH 451 0
DWIDTH 16 0
BBX 16 32 0 -2
BITMAP
0000
0000
0000
07F0
1FFC
1FFE
1B9E
078F
0707
0F07
0E07
1E07
1C07
3C0F
380E
380E
381E
781C
743C
7F38
7F78
77F0
73F0
79E0
3FE0
3FF0
1EF8
007F
003F
001F
0000
0000
ENDCHAR

STARTCHAR CODE082
ENCODING 82
SWIDTH 451 0
DWIDTH 16 0
BBX 16 32 0 -2
BITMAP
0000
0000
0000
06F8
07FE
1FFE
1F8F
1F07
0707
0F07
0E0F
0E0E
0E3E
3FFC
3FF8
3FE0
1C00
3E00
3F00
3780
7780
73C0
71E0
71F0
70F8
7078
7038
0000
0000
0000
0000
0000
ENDCHAR

STARTCHAR CODE083
ENCODING 83
SWIDTH 451 0
DWIDTH 16 0
BBX 16 32 0 -2
BITMAP
0000
0000
0000
007C
01FE
03FF
07CF
0787
0F0F
0E1E
0E7E
0E7C
0F70
0780
07C0
03E0
01F0
00F0
3878
3838
3838
7838
7078
7878
3FF0
3FF0
0FE0
0000
0000
0000
0000
0000
ENDCHAR

STARTCHAR CODE084
ENCODING 84
SWIDTH 451 0
DWIDTH 16 0
BBX 16 32 0 -2
BITMAP
0000
0000
0000
00FF
0FFF
7FFF
7FC0
79C0
0380
0380
0780
0700
0700
0F00
0E00
0E00
0E00
1E00
1C00
1C00
1C00
1C00
3C00
3C00
3800
3800
3800
0000
0000
0000
0000
0000
ENDCHAR

STARTCHAR CODE085
ENCODING 85
SWIDTH 451 0
DWIDTH 16 0
BBX 16 32 0 -2
BITMAP
0000
0000
0000
0700
0703
0F07
0E07
1E0F
1C0F
3C1F
381E
383E
783E
707E
707C
70FC
F0DC
E1DC
E1FC
E3B8
E3B8
E7B8
E738
EF38
7E38
7E38
3C00
0000
0000
0000
0000
0000
ENDCHAR

STARTCHAR CODE086
ENCODING 86
SWIDTH 451 0
DWIDTH 16 0
BBX 16 32 0 -2
BITMAP
0000
0000
0000
000E
1C0E
1C1E
1C1C
1C1C
3C3C
3838
3838
3878
3870
3870
38F0
38E0
38E0
39E0
39C0
39C0
3BC0
3B80
1F80
1F80
1F00
1F00
0E00
0000
0000
0000
0000
0000
ENDCHAR

STARTCHAR CODE087
ENCODING 87
SWIDTH 451 0
DWIDTH 16 0
BBX 16 32 0 -2
BITMAP
0000
0000
0000
1C03
1C03
1C03
1C03
3C07
3807
3807
3807
39C7
39CF
39CE
3BCE
7B8E
738E
77DE
77DC
77DC
7FDC
6DDC
6FFC
7EF8
7CF8
7CF8
3870
0000
0000
0000
0000
0000
ENDCHAR

STARTCHAR CODE088
ENCODING 88
SWIDTH 451 0
DWIDTH 16 0
BBX 16 32 0 -2
BITMAP
0000
0000
0000
0700
0703
0707
078F
039F
03BE
03BC
01F8
01F0
01F0
01E0
03E0
03F0
0770
0770
0F78
0E38
1E38
1C3C
3C1C
381C
781E
700E
700E
0000
0000
0000
0000
0000
ENDCHAR

STARTCHAR CODE089
ENCODING 89
SWIDTH 451 0
DWIDTH 16 0
BBX 16 32 0 -2
BITMAP
0000
0000
0000
0707
070F
0F0F
0E1E
1E1C
3C3C
3C38
3878
7870
70F0
71F0
73E0
7FE0
6FE0
7DC0
39C0
01C0
01C0
03C0
0380
0380
0380
0380
0380
0000
0000
0000
0000
0000
ENDCHAR

STARTCHAR CODE090
ENCODING 90
SWIDTH 451 0
DWIDTH 16 0
BBX 16 32 0 -2
BITMAP
0000
0000
0000
01FF
3FFF
3FFF
3F0F
003E
007C
00F8
00F0
01E0
03C0
03C0
0780
0F00
0F00
1E00
1C00
3C00
3800
7800
70F8
77F8
7FF8
7F80
7C00
0000
0000
0000
0000
0000
ENDCHAR

STARTCHAR CODE091
ENCODING 91
SWIDTH 451 0
DWIDTH 16 0
BBX 16 32 0 -2
BITMAP
0000
001E
00FE
00FE
00F0
00E0
00E0
01E0
01C0
01C0
01C0
01C0
01C0
03C0
0380
0380
0380
0380
0380
0380
0380
0380
0380
0380
0380
0380
03BC
03FC
03FC
03E0
0000
0000
ENDCHAR

STARTCHAR CODE092
ENCODING 92
SWIDTH 451 0
DWIDTH 16 0
BBX 16 32 0 -2
BITMAP
0000
0000
0000
0000
0000
0E07
0E07
0E07
0E0F
1E0E
1DFF
FFFF
FFFF
FFDC
1DDC
3BFF
FFFF
FFFF
FFB8
37B8
3FB8
3DB8
3FF8
3EF0
1CF0
1C70
0000
0000
0000
0000
0000
0000
ENDCHAR

STARTCHAR CODE093
ENCODING 93
SWIDTH 451 0
DWIDTH 16 0
BBX 16 32 0 -2
BITMAP
0000
0000
03E0
1FE0
1FE0
1EE0
00E0
00E0
00E0
00E0
00E0
00E0
00E0
00E0
00E0
00E0
01E0
01C0
01C0
01C0
01C0
01C0
01C0
03C0
0380
0380
0780
3F80
3F80
3C00
0000
0000
ENDCHAR

STARTCHAR CODE094
ENCODING 94
SWIDTH 451 0
DWIDTH 16 0
BBX 16 32 0 -2
BITMAP
0000
0000
01C0
03E0
07F0
0F78
0E38
0000
0000
0000
0000
0000
0000
0000
0000
0000
0000
0000
0000
0000
0000
0000
0000
0000
0000
0000
0000
0000
0000
0000
0000
0000
ENDCHAR

STARTCHAR CODE095
ENCODING 95
SWIDTH 451 0
DWIDTH 16 0
BBX 16 32 0 -2
BITMAP
0000
0000
0000
0000
0000
0000
0000
0000
0000
0000
0000
0000
0000
0000
0000
0000
0000
0000
0000
0000
0000
0000
0000
0000
0000
0000
0000
0000
7FFF
7FFF
7FFF
0000
ENDCHAR

STARTCHAR CODE096
ENCODING 96
SWIDTH 451 0
DWIDTH 16 0
BBX 16 32 0 -2
BITMAP
0000
0000
01C0
03C0
03C0
0380
0380
03C0
01E0
00E0
0000
0000
0000
0000
0000
0000
0000
0000
0000
0000
0000
0000
0000
0000
0000
0000
0000
0000
0000
0000
0000
0000
ENDCHAR

STARTCHAR CODE097
ENCODING 97
SWIDTH 451 0
DWIDTH 16 0
BBX 16 32 0 -2
BITMAP
0000
0000
0000
0000
0000
0000
0000
0000
0000
0000
0000
0000
0000
0000
0380
07C0
0FE0
0DE0
1EE0
1CE0
1CE0
1DE0
1DF0
1FF8
0F78
0738
0000
0000
0000
0000
0000
0000
ENDCHAR

STARTCHAR CODE098
ENCODING 98
SWIDTH 451 0
DWIDTH 16 0
BBX 16 32 0 -2
BITMAP
0000
0000
0000
0000
0000
00E0
00E0
00E0
01E0
01C0
01C0
01C0
03C0
0380
03E0
03F0
07F0
0778
0738
0738
0F38
0E38
0F78
0FF0
0FF0
0DC0
0000
0000
0000
0000
0000
0000
ENDCHAR

STARTCHAR CODE099
ENCODING 99
SWIDTH 451 0
DWIDTH 16 0
BBX 16 32 0 -2
BITMAP
0000
0000
0000
0000
0000
0000
0000
0000
0000
0000
0000
0000
0000
0000
03E0
07F0
0FF0
0F70
1EF0
1CE0
1C18
1C38
1E78
1FF0
0FF0
07E0
0000
0000
0000
0000
0000
0000
ENDCHAR

STARTCHAR CODE100
ENCODING 100
SWIDTH 451 0
DWIDTH 16 0
BBX 16 32 0 -2
BITMAP
0000
0000
0000
0000
001C
001C
001C
003C
0038
0038
0078
0070
0070
0070
03F0
0FE0
1FE0
1EE0
3DE0
39C0
39C0
3BE0
3BE0
3FF0
1F70
0F70
0000
0000
0000
0000
0000
0000
ENDCHAR

STARTCHAR CODE101
ENCODING 101
SWIDTH 451 0
DWIDTH 16 0
BBX 16 32 0 -2
BITMAP
0000
0000
0000
0000
0000
0000
0000
0000
0000
0000
0000
0000
0000
0000
07C0
0FE0
0FE0
1EE0
1DE0
1FD8
1FB8
1F78
1CF8
0FF0
0FE0
07C0
0000
0000
0000
0000
0000
0000
ENDCHAR

STARTCHAR CODE102
ENCODING 102
SWIDTH 451 0
DWIDTH 16 0
BBX 16 32 0 -2
BITMAP
0000
0000
0000
0000
0070
0070
0070
00F0
00E0
01E0
01C0
01C0
03FC
03BC
0FFC
0FE0
0F00
07C0
07C0
0FE0
0DE0
0EE0
1EE0
1CE0
1CE0
1CE0
1DE0
1DC0
1FC0
1BC0
1F80
0F00
ENDCHAR

STARTCHAR CODE103
ENCODING 103
SWIDTH 451 0
DWIDTH 16 0
BBX 16 32 0 -2
BITMAP
0000
0000
0000
0000
0000
0000
0000
0000
0000
0000
0000
0000
0000
0000
07C0
0FE0
1FE0
1EE0
1CE0
1EEE
1FFE
0FBE
07FC
1BF0
3FC0
7F80
7B80
7380
7780
7F00
7F00
3E00
ENDCHAR

STARTCHAR CODE104
ENCODING 104
SWIDTH 451 0
DWIDTH 16 0
BBX 16 32 0 -2
BITMAP
0000
0000
0000
0000
01C0
01C0
01C0
01C0
03C0
0380
0380
0380
0780
0700
0770
07F0
06F0
0FF0
0FEC
0EFC
0DDC
1DFC
1DB8
1DF8
1CF0
1C00
0000
0000
0000
0000
0000
0000
ENDCHAR

STARTCHAR CODE105
ENCODING 105
SWIDTH 451 0
DWIDTH 16 0
BBX 16 32 0 -2
BITMAP
0000
0000
0000
0000
0000
0000
0000
0000
0060
00F0
00F0
00F0
0060
0000
01C0
01C0
01C0
01C0
03C0
0380
0380
0380
0780
0700
0700
0700
0000
0000
0000
0000
0000
0000
ENDCHAR

STARTCHAR CODE106
ENCODING 106
SWIDTH 451 0
DWIDTH 16 0
BBX 16 32 0 -2
BITMAP
0000
0000
0000
0000
0000
0000
0000
0070
00F8
00F8
0070
0000
0000
0000
00E0
00E0
00E0
00FC
01DC
01BC
01F8
03F0
07E0
1FC0
3F80
3B80
7B80
7780
7700
7F00
3F00
1E00
ENDCHAR

STARTCHAR CODE107
ENCODING 107
SWIDTH 451 0
DWIDTH 16 0
BBX 16 32 0 -2
BITMAP
0000
0000
0000
0000
00F0
01F8
03F8
03B8
07B8
0778
0F70
0EF0
0FE0
1DC0
1B80
1F60
1DE0
3BE0
3780
3F0E
3B8E
3B9E
3BBC
3BFC
39F8
38E0
0000
0000
0000
0000
0000
0000
ENDCHAR

STARTCHAR CODE108
ENCODING 108
SWIDTH 451 0
DWIDTH 16 0
BBX 16 32 0 -2
BITMAP
0000
0000
0000
0000
003C
007E
00FE
00EE
01FE
01DC
03DC
03BC
03B8
07F8
0770
07F0
06E0
07E0
0FC0
0FB0
0F70
0EF0
0EF0
0FE0
0FE0
07C0
0000
0000
0000
0000
0000
0000
ENDCHAR

STARTCHAR CODE109
ENCODING 109
SWIDTH 451 0
DWIDTH 16 0
BBX 16 32 0 -2
BITMAP
0000
0000
0000
0000
0000
0000
0000
0000
0000
0000
0000
0000
0000
0000
1DB8
1FF8
1B78
1FF8
1FF0
3B70
3B70
3F70
3770
3778
3738
3738
0000
0000
0000
0000
0000
0000
ENDCHAR

STARTCHAR CODE110
ENCODING 110
SWIDTH 451 0
DWIDTH 16 0
BBX 16 32 0 -2
BITMAP
0000
0000
0000
0000
0000
0000
0000
0000
0000
0000
0000
0000
0000
0000
0EE0
0FE0
0DE0
0FE0
0EE0
1FE0
1DC0
1DC0
1DC0
1DE0
1CE0
1CE0
0000
0000
0000
0000
0000
0000
ENDCHAR

STARTCHAR CODE111
ENCODING 111
SWIDTH 451 0
DWIDTH 16 0
BBX 16 32 0 -2
BITMAP
0000
0000
0000
0000
0000
0000
0000
0000
0000
0000
0000
0000
0000
0000
03C0
07E0
0FF0
0EF0
1E70
1C70
1C70
1CF0
1DE0
1FE0
0FC0
0780
0000
0000
0000
0000
0000
0000
ENDCHAR

STARTCHAR CODE112
ENCODING 112
SWIDTH 451 0
DWIDTH 16 0
BBX 16 32 0 -2
BITMAP
0000
0000
0000
0000
0000
0000
0000
0000
0000
0000
0000
0000
0000
0000
0700
0FC0
0FE0
0FF0
06F0
0E70
0E70
0EF0
1FE0
1DE0
1FC0
1F00
1C00
3C00
3800
3800
3800
3800
ENDCHAR

STARTCHAR CODE113
ENCODING 113
SWIDTH 451 0
DWIDTH 16 0
BBX 16 32 0 -2
BITMAP
0000
0000
0000
0000
0000
0000
0000
0000
0000
0000
0000
0000
0000
0000
01F0
07F0
0FF0
0F70
1E70
1C70
1CF0
1CE0
1DE0
1FE0
0FC0
07C0
01C0
03C0
0380
0380
0380
0380
ENDCHAR

STARTCHAR CODE114
ENCODING 114
SWIDTH 451 0
DWIDTH 16 0
BBX 16 32 0 -2
BITMAP
0000
0000
0000
0000
0000
0000
0000
0000
0000
0000
0000
0000
0000
0000
0E70
0EF0
0FF0
0DEC
0FDC
1FFC
1EF0
1E00
1C00
1C00
1C00
1C00
0000
0000
0000
0000
0000
0000
ENDCHAR

STARTCHAR CODE115
ENCODING 115
SWIDTH 451 0
DWIDTH 16 0
BBX 16 32 0 -2
BITMAP
0000
0000
0000
0000
0000
0000
0000
0000
0000
0000
0000
0000
0000
0000
01F0
03F8
07F8
07B8
0778
1BF0
3FC0
3DE0
38E0
1FE0
1FC0
0F80
0000
0000
0000
0000
0000
0000
ENDCHAR

STARTCHAR CODE116
ENCODING 116
SWIDTH 451 0
DWIDTH 16 0
BBX 16 32 0 -2
BITMAP
0000
0000
0000
0000
0000
0000
00E0
00E0
01E0
01C0
01C0
01FC
0FFC
0FFC
0F80
0380
0380
0380
0780
0700
0738
0738
0778
07F0
03F0
01E0
0000
0000
0000
0000
0000
0000
ENDCHAR

STARTCHAR CODE117
ENCODING 117
SWIDTH 451 0
DWIDTH 16 0
BBX 16 32 0 -2
BITMAP
0000
0000
0000
0000
0000
0000
0000
0000
0000
0000
0000
0000
0000
0000
0770
0770
0770
0FF0
0EE0
0FE0
1DE0
1DF0
1FF0
1B78
0F78
0F38
0000
0000
0000
0000
0000
0000
ENDCHAR

STARTCHAR CODE118
ENCODING 118
SWIDTH 451 0
DWIDTH 16 0
BBX 16 32 0 -2
BITMAP
0000
0000
0000
0000
0000
0000
0000
0000
0000
0000
0000
0000
0000
0000
06E0
06E0
06E0
06FC
0EDC
0EFC
0EF8
0EE0
0FE0
0DC0
0FC0
0780
0000
0000
0000
0000
0000
0000
ENDCHAR

STARTCHAR CODE119
ENCODING 119
SWIDTH 451 0
DWIDTH 16 0
BBX 16 32 0 -2
BITMAP
0000
0000
0000
0000
0000
0000
0000
0000
0000
0000
0000
0000
0000
0000
0E1C
0E1C
0E1C
1FDC
1DDC
1FFC
3BB8
3FB8
37F8
3FF0
3DF0
1CE0
0000
0000
0000
0000
0000
0000
ENDCHAR

STARTCHAR CODE120
ENCODING 120
SWIDTH 451 0
DWIDTH 16 0
BBX 16 32 0 -2
BITMAP
0000
0000
0000
0000
0000
0000
0000
0000
0000
0000
0000
0000
0000
0000
0E70
0EF0
0FF0
0DE0
0FD8
07B8
0738
0F78
0FF0
1FF0
1DE0
1C00
0000
0000
0000
0000
0000
0000
ENDCHAR

STARTCHAR CODE121
ENCODING 121
SWIDTH 451 0
DWIDTH 16 0
BBX 16 32 0 -2
BITMAP
0000
0000
0000
0000
0000
0000
0000
0000
0000
0000
0000
0000
0000
0000
0E70
0EF0
1EF0
1DF0
1DE0
1FEE
1BFE
1FDE
0EFC
03F0
1FC0
1DC0
3DC0
3BC0
3BC0
3F80
3F80
1F00
ENDCHAR

STARTCHAR CODE122
ENCODING 122
SWIDTH 451 0
DWIDTH 16 0
BBX 16 32 0 -2
BITMAP
0000
0000
0000
0000
0000
0000
0000
0000
0000
0000
0000
0000
0000
0000
01F8
0FF8
0FF8
0F78
00F0
03E0
07C0
0F80
0F60
1DE0
1FE0
1F00
0000
0000
0000
0000
0000
0000
ENDCHAR

STARTCHAR CODE123
ENCODING 123
SWIDTH 451 0
DWIDTH 16 0
BBX 16 32 0 -2
BITMAP
0000
000F
001F
003F
003C
0078
0070
00F0
00E0
00E0
01E0
03C0
0FC0
7F80
7F00
3C00
1F00
0F00
0780
0780
0380
0380
0780
0700
0780
07C0
03E0
01FC
00FC
003C
0000
0000
ENDCHAR

STARTCHAR CODE124
ENCODING 124
SWIDTH 451 0
DWIDTH 16 0
BBX 16 32 0 -2
BITMAP
0000
0000
0070
0070
0070
0070
0070
00F0
00E0
00E0
00E0
00E0
00E0
01E0
01C0
01C0
01C0
01C0
03C0
0380
0380
0380
0380
0780
0700
0700
0700
0700
0700
0000
0000
0000
ENDCHAR

STARTCHAR CODE125
ENCODING 125
SWIDTH 451 0
DWIDTH 16 0
BBX 16 32 0 -2
BITMAP
0000
0F00
0FC0
0FE0
01E0
00F0
0070
0070
00F0
00E0
00E0
00F0
00F8
007E
003F
005F
00FE
01F8
01E0
03C0
0380
0380
0780
0700
0700
0F00
1E00
FE00
FC00
F000
0000
0000
ENDCHAR

STARTCHAR CODE126
ENCODING 126
SWIDTH 451 0
DWIDTH 16 0
BBX 16 32 0 -2
BITMAP
0000
0000
0000
0000
0000
0000
0000
0000
0000
0000
0000
0000
0F0E
1FDE
3FFE
3DFC
3878
0000
0000
0000
0000
0000
0000
0000
0000
0000
0000
0000
0000
0000
0000
0000
ENDCHAR

STARTCHAR CODE127
ENCODING 127
SWIDTH 451 0
DWIDTH 16 0
BBX 16 32 0 -2
BITMAP
0000
0000
0000
0000
0000
0000
0000
0000
0000
0000
0000
0000
0000
0000
0000
0000
0000
0000
0000
0000
0000
0000
0000
0000
0000
0000
0000
0000
0000
0000
0000
0000
ENDCHAR

STARTCHAR CODE128
ENCODING 128
SWIDTH 451 0
DWIDTH 16 0
BBX 16 32 0 -2
BITMAP
0000
0000
0000
003C
00FE
01FF
03EF
07C7
078F
0F0F
0E1E
1E3E
1C3C
1C38
3C00
3800
3800
380E
380E
381E
381C
3C3C
1E78
1FF8
0FF0
07C0
03A0
07F0
07F0
0770
00E0
01C0
ENDCHAR

STARTCHAR CODE129
ENCODING 129
SWIDTH 451 0
DWIDTH 16 0
BBX 16 32 0 -2
BITMAP
0000
0000
0000
0000
0000
0000
0000
0000
0330
0778
0778
0778
0330
0000
0000
0770
0770
0F70
0E70
1EF0
1CE0
1DE0
1FF0
1FF8
0F78
0738
0000
0000
0000
0000
0000
0000
ENDCHAR

STARTCHAR CODE130
ENCODING 130
SWIDTH 451 0
DWIDTH 16 0
BBX 16 32 0 -2
BITMAP
0000
0000
0000
0000
0000
0000
0000
0000
0000
00E0
00E0
01E0
03C0
0300
00C0
0FE0
0FE0
1EE0
1DE0
1BC0
1F80
1F38
1C78
1FF8
0FF0
07C0
0000
0000
0000
0000
0000
0000
ENDCHAR

STARTCHAR CODE131
ENCODING 131
SWIDTH 451 0
DWIDTH 16 0
BBX 16 32 0 -2
BITMAP
0000
0000
0000
0000
0000
0000
0000
0000
0000
00E0
01F0
03F8
07BC
071C
0080
07C0
0FE0
0DE0
1EE0
1CE0
1CE0
1DE0
1DF0
1FF8
0F78
0738
0000
0000
0000
0000
0000
0000
ENDCHAR

STARTCHAR CODE132
ENCODING 132
SWIDTH 451 0
DWIDTH 16 0
BBX 16 32 0 -2
BITMAP
0000
0000
0000
0000
0000
0000
0000
0000
0330
0778
0778
0778
0330
0000
0380
07C0
0FE0
0DE0
1EE0
1CE0
1CE0
1DE0
1DF0
1FF8
0F78
0738
0000
0000
0000
0000
0000
0000
ENDCHAR

STARTCHAR CODE133
ENCODING 133
SWIDTH 451 0
DWIDTH 16 0
BBX 16 32 0 -2
BITMAP
0000
0000
0000
0000
0000
0000
0000
0000
00E0
00E0
00F0
0070
0038
0018
0380
07C0
0FE0
0DE0
1EE0
1CE0
1CE0
1DE0
1DF0
1FF8
0F78
0738
0000
0000
0000
0000
0000
0000
ENDCHAR

STARTCHAR CODE134
ENCODING 134
SWIDTH 451 0
DWIDTH 16 0
BBX 16 32 0 -2
BITMAP
0000
0000
0000
0000
0000
0000
0000
00E0
01F0
03F8
03B8
03F8
01F0
00E0
0300
07C0
0FE0
0DE0
1EE0
1CE0
1CE0
1DE0
1DF0
1FF8
0F78
0738
0000
0000
0000
0000
0000
0000
ENDCHAR

STARTCHAR CODE135
ENCODING 135
SWIDTH 451 0
DWIDTH 16 0
BBX 16 32 0 -2
BITMAP
0000
0000
0000
0000
0000
0000
0000
0000
0000
0000
0000
0000
0000
0000
01E0
07F0
07F0
0F70
0EF0
1EE0
1C10
1C70
1EF0
1FE0
0FE0
0380
0F00
0FC0
0FC0
01C0
03C0
0380
ENDCHAR

STARTCHAR CODE136
ENCODING 136
SWIDTH 451 0
DWIDTH 16 0
BBX 16 32 0 -2
BITMAP
0000
0000
0000
0000
0000
0000
0000
0000
0000
00E0
01F0
03F8
07BC
071C
00C0
0FE0
1FE0
1EE0
1DE0
1BDC
1F9C
1F3C
1C7C
0FF8
0FF0
07E0
0000
0000
0000
0000
0000
0000
ENDCHAR

STARTCHAR CODE137
ENCODING 137
SWIDTH 451 0
DWIDTH 16 0
BBX 16 32 0 -2
BITMAP
0000
0000
0000
0000
0000
0000
0000
0000
0330
0778
0778
0778
0330
0000
07C0
0FE0
1FE0
1EE0
1DE0
1BDC
1F9C
1F3C
1C7C
0FF8
0FF0
07E0
0000
0000
0000
0000
0000
0000
ENDCHAR

STARTCHAR CODE138
ENCODING 138
SWIDTH 451 0
DWIDTH 16 0
BBX 16 32 0 -2
BITMAP
0000
0000
0000
0000
0000
0000
0000
0000
01C0
01C0
01E0
00E0
0070
0030
07C0
0FE0
1FE0
1EE0
1DE0
1BDC
1F9C
1F3C
1C7C
0FF8
0FF0
07E0
0000
0000
0000
0000
0000
0000
ENDCHAR

STARTCHAR CODE139
ENCODING 139
SWIDTH 451 0
DWIDTH 16 0
BBX 16 32 0 -2
BITMAP
0000
0000
0000
0000
0000
0000
0000
0000
0330
0778
0778
0778
0330
0000
01C0
01C0
01C0
03C0
0380
0380
0380
0380
0780
0700
0700
0700
0000
0000
0000
0000
0000
0000
ENDCHAR

STARTCHAR CODE140
ENCODING 140
SWIDTH 451 0
DWIDTH 16 0
BBX 16 32 0 -2
BITMAP
0000
0000
0000
0000
0000
0000
0000
0000
0000
00E0
01F0
03F8
07BC
071C
00C0
0FE0
1FE0
1EE0
1DE0
1BDC
1F9C
1F3C
1C7C
0FF8
0FF0
07E0
0000
0000
0000
0000
0000
0000
ENDCHAR

STARTCHAR CODE141
ENCODING 141
SWIDTH 451 0
DWIDTH 16 0
BBX 16 32 0 -2
BITMAP
0000
0000
0000
0000
0000
0000
0000
0000
01C0
01C0
01E0
00E0
0070
0030
01C0
01C0
01C0
03C0
0380
0380
0380
0380
0780
0700
0700
0700
0000
0000
0000
0000
0000
0000
ENDCHAR

STARTCHAR CODE142
ENCODING 142
SWIDTH 451 0
DWIDTH 16 0
BBX 16 32 0 -2
BITMAP
0066
00EF
00EF
00EF
0066
0000
0038
007C
007C
00FC
00DC
01DC
01DC
03DC
039F
07FF
06FF
3FFC
FF9C
FE1E
EE0E
1C0E
1C0E
3C0E
380E
380E
0000
0000
0000
0000
0000
0000
ENDCHAR

STARTCHAR CODE143
ENCODING 143
SWIDTH 451 0
DWIDTH 16 0
BBX 16 32 0 -2
BITMAP
001C
003E
007F
0077
007F
003E
001C
0078
007C
00FC
00DC
01DC
01DC
03DC
039F
07FF
06FF
3FFC
FF9C
FE1E
EE0E
1C0E
1C0E
3C0E
380E
380E
0000
0000
0000
0000
0000
0000
ENDCHAR

STARTCHAR CODE144
ENCODING 144
SWIDTH 451 0
DWIDTH 16 0
BBX 16 32 0 -2
BITMAP
0038
0038
0078
0070
00E0
00C0
003F
0FFF
0FFF
0FC0
0700
0F00
0E00
0EF8
1FF8
1FF8
1F80
1C00
1C00
3C00
3800
39F8
3FF8
3FF8
3F00
3800
0000
0000
0000
0000
0000
0000
ENDCHAR

STARTCHAR CODE145
ENCODING 145
SWIDTH 451 0
DWIDTH 16 0
BBX 16 32 0 -2
BITMAP
0000
0000
0000
0000
0000
0000
0000
0000
0000
0000
0000
0000
0000
0000
1EF0
3FF8
3FFC
3BBC
079C
3FFC
7FFA
7BEE
779E
7FFE
3FFC
1CF8
0000
0000
0000
0000
0000
0000
ENDCHAR

STARTCHAR CODE146
ENCODING 146
SWIDTH 451 0
DWIDTH 16 0
BBX 16 32 0 -2
BITMAP
0000
0000
0000
003F
07FF
07FF
07F0
01F0
0370
0770
0770
0F70
0E7F
0FFF
FFFF
FFE0
FCE0
1CE0
3CE0
38E0
38E0
78E0
70EF
70FF
70FF
7078
0000
0000
0000
0000
0000
0000
ENDCHAR

STARTCHAR CODE147
ENCODING 147
SWIDTH 451 0
DWIDTH 16 0
BBX 16 32 0 -2
BITMAP
0000
0000
0000
0000
0000
0000
0000
0000
0000
00E0
01F0
03F8
07BC
071C
00C0
07E0
0FF0
0EF0
1E70
1C70
1C70
1CF0
1DE0
1FE0
0FC0
0780
0000
0000
0000
0000
0000
0000
ENDCHAR

STARTCHAR CODE148
ENCODING 148
SWIDTH 451 0
DWIDTH 16 0
BBX 16 32 0 -2
BITMAP
0000
0000
0000
0000
0000
0000
0000
0000
0330
0778
0778
0778
0330
0000
03C0
07E0
0FF0
0EF0
1E70
1C70
1C70
1CF0
1DE0
1FE0
0FC0
0780
0000
0000
0000
0000
0000
0000
ENDCHAR

STARTCHAR CODE149
ENCODING 149
SWIDTH 451 0
DWIDTH 16 0
BBX 16 32 0 -2
BITMAP
0000
0000
0000
0000
0000
0000
0000
0000
01C0
01C0
01E0
00E0
0070
0030
03C0
07E0
0FF0
0EF0
1E70
1C70
1C70
1CF0
1DE0
1FE0
0FC0
0780
0000
0000
0000
0000
0000
0000
ENDCHAR

STARTCHAR CODE150
ENCODING 150
SWIDTH 451 0
DWIDTH 16 0
BBX 16 32 0 -2
BITMAP
0000
0000
0000
0000
0000
0000
0000
0000
0000
00E0
01F0
03F8
07BC
071C
0060
0770
0770
0FF0
0EE0
0FE0
1DE0
1DF0
1FF0
1B78
0F78
0F38
0000
0000
0000
0000
0000
0000
ENDCHAR

STARTCHAR CODE151
ENCODING 151
SWIDTH 451 0
DWIDTH 16 0
BBX 16 32 0 -2
BITMAP
0000
0000
0000
0000
0000
0000
0000
0000
01C0
01C0
01E0
00E0
0070
0030
0740
0770
0770
0FF0
0EE0
0FE0
1DE0
1DF0
1FF0
1B78
0F78
0F38
0000
0000
0000
0000
0000
0000
ENDCHAR

STARTCHAR CODE152
ENCODING 152
SWIDTH 451 0
DWIDTH 16 0
BBX 16 32 0 -2
BITMAP
0000
0000
0000
0000
0000
0000
0000
0000
0330
0778
0778
0778
0330
0000
0E70
0EF0
1EF0
1DF0
1DE0
1FEE
1BFE
1FDE
0EFC
03F0
1FC0
1DC0
3DC0
3BC0
3BC0
3F80
3F80
1F00
ENDCHAR

STARTCHAR CODE153
ENCODING 153
SWIDTH 451 0
DWIDTH 16 0
BBX 16 32 0 -2
BITMAP
00CC
01DE
01DE
01DE
00CC
0000
07F0
1FFC
1FFE
1B9E
070F
0F0F
0E07
1E07
3C07
3807
380F
780E
700E
701E
703C
783C
7878
3CF0
3FF0
1FE0
0F80
0000
0000
0000
0000
0000
ENDCHAR

STARTCHAR CODE154
ENCODING 154
SWIDTH 451 0
DWIDTH 16 0
BBX 16 32 0 -2
BITMAP
00CC
01DE
01DE
01DE
00CC
0000
0707
0707
0F07
0E0F
1E0F
1C1E
1C1E
3C3E
383E
387C
387C
78FC
70DC
70DC
71DC
71DC
73DC
77DE
7F8E
3F0E
1E00
0000
0000
0000
0000
0000
ENDCHAR

STARTCHAR CODE155
ENCODING 155
SWIDTH 451 0
DWIDTH 16 0
BBX 16 32 0 -2
BITMAP
0000
0000
0000
0000
0000
0000
0000
0000
0000
0000
0000
0070
0070
0070
03F0
07E0
0FF0
0FF0
1DF0
1BE0
1B98
1BB8
1FF8
1F70
0FF0
07E0
0E00
0E00
0E00
0000
0000
0000
ENDCHAR

STARTCHAR CODE156
ENCODING 156
SWIDTH 451 0
DWIDTH 16 0
BBX 16 32 0 -2
BITMAP
0000
0000
0000
0000
0000
0000
0000
007E
00FE
01FE
01E0
01C0
03C0
0380
03FC
3FFC
3FFC
3F00
0700
0700
0F00
0E00
0FFC
1DFC
7FFC
7F00
7800
0000
0000
0000
0000
0000
ENDCHAR

STARTCHAR CODE157
ENCODING 157
SWIDTH 451 0
DWIDTH 16 0
BBX 16 32 0 -2
BITMAP
0000
0000
0000
0000
0000
0000
1C0E
1C0E
1C1E
1E1C
0E3C
0F38
0778
0770
03F0
03E0
01F8
3FF8
3FF8
3F80
43F0
7FF0
7F00
0E00
1E00
1C00
1C00
0000
0000
0000
0000
0000
ENDCHAR

STARTCHAR CODE158
ENCODING 158
SWIDTH 451 0
DWIDTH 16 0
BBX 16 32 0 -2
BITMAP
0000
0000
0000
1C00
7F00
7F80
7FC0
1BC0
1DCE
3DCE
39DE
39DC
39DF
3BFF
FFFF
FFF8
FE38
7038
7078
7077
7077
F077
E07F
E06E
E07E
E03C
E000
0000
0000
0000
0000
0000
ENDCHAR

STARTCHAR CODE159
ENCODING 159
SWIDTH 451 0
DWIDTH 16 0
BBX 16 32 0 -2
BITMAP
0000
0000
0000
0000
0000
001F
003F
007F
0078
0070
00F0
00E0
00E0
00FE
07FE
07FE
07E0
01C0
01C0
01C0
01C0
03C0
0380
0380
0380
0380
0380
0780
1F80
1F00
1E00
0000
ENDCHAR

STARTCHAR CODE160
ENCODING 160
SWIDTH 451 0
DWIDTH 16 0
BBX 16 32 0 -2
BITMAP
0000
0000
0000
0000
0000
0000
0000
0000
0070
0070
00F0
00E0
01C0
0180
0200
07C0
0FE0
0DE0
1EE0
1CE0
1CE0
1DE0
1DF0
1FF8
0F78
0738
0000
0000
0000
0000
0000
0000
ENDCHAR

STARTCHAR CODE161
ENCODING 161
SWIDTH 451 0
DWIDTH 16 0
BBX 16 32 0 -2
BITMAP
0000
0000
0000
0000
0000
0000
0000
0000
0070
0070
00F0
00E0
01C0
0180
0040
01C0
01C0
03C0
0380
0380
0380
0380
0780
0700
0700
0700
0000
0000
0000
0000
0000
0000
ENDCHAR

STARTCHAR CODE162
ENCODING 162
SWIDTH 451 0
DWIDTH 16 0
BBX 16 32 0 -2
BITMAP
0000
0000
0000
0000
0000
0000
0000
0000
0070
0070
00F0
00E0
01C0
0180
0240
07E0
0FF0
0EF0
1E70
1C70
1C70
1CF0
1DE0
1FE0
0FC0
0780
0000
0000
0000
0000
0000
0000
ENDCHAR

STARTCHAR CODE163
ENCODING 163
SWIDTH 451 0
DWIDTH 16 0
BBX 16 32 0 -2
BITMAP
0000
0000
0000
0000
0000
0000
0000
0000
00E0
00E0
01E0
01C0
0380
0300
0470
0770
0770
0FF0
0EE0
0FE0
1DE0
1DF0
1FF0
1B78
0F78
0F38
0000
0000
0000
0000
0000
0000
ENDCHAR

STARTCHAR CODE164
ENCODING 164
SWIDTH 451 0
DWIDTH 16 0
BBX 16 32 0 -2
BITMAP
0000
0000
0000
0000
0000
0000
0000
0000
0000
039C
0FFC
0FFC
0EF0
0000
0EE0
0FE0
0DE0
0FE0
0EE0
1FE0
1DC0
1DC0
1DC0
1DE0
1CE0
1CE0
0000
0000
0000
0000
0000
0000
ENDCHAR

STARTCHAR CODE165
ENCODING 165
SWIDTH 451 0
DWIDTH 16 0
BBX 16 32 0 -2
BITMAP
0000
00E7
03FF
03FF
03BC
0000
0007
0707
0707
0F07
0F07
1F8F
1B8E
1B8E
1B8E
3BDE
39DC
39DC
39FC
39B8
78F8
70F8
70F8
7070
7070
7070
7070
0000
0000
0000
0000
0000
ENDCHAR

STARTCHAR CODE166
ENCODING 166
SWIDTH 451 0
DWIDTH 16 0
BBX 16 32 0 -2
BITMAP
0000
0000
0000
00E0
03F0
03F0
0770
07F0
06F8
07F8
03B8
0440
07F8
07F8
0000
0000
0000
0000
0000
0000
0000
0000
0000
0000
0000
0000
0000
0000
0000
0000
0000
0000
ENDCHAR

STARTCHAR CODE167
ENCODING 167
SWIDTH 451 0
DWIDTH 16 0
BBX 16 32 0 -2
BITMAP
0000
0000
0000
00F0
01F8
03F8
03B8
03F8
0378
03F0
01E0
0218
03F8
03F8
0000
0000
0000
0000
0000
0000
0000
0000
0000
0000
0000
0000
0000
0000
0000
0000
0000
0000
ENDCHAR

STARTCHAR CODE168
ENCODING 168
SWIDTH 451 0
DWIDTH 16 0
BBX 16 32 0 -2
BITMAP
0000
0000
0000
0000
0000
0000
0000
0060
00F0
00F0
00F0
0060
0000
00E0
00E0
00E0
01E0
01E0
03C0
07C0
0F80
1F00
3E00
3C00
7870
7870
7070
78F0
7FF0
3FE0
1F80
0000
ENDCHAR

STARTCHAR CODE169
ENCODING 169
SWIDTH 451 0
DWIDTH 16 0
BBX 16 32 0 -2
BITMAP
0000
0000
0000
0000
0000
0000
0000
0000
0000
0000
0000
0000
7FFF
7FFF
7FFF
7000
7000
7000
7000
7000
7000
0000
0000
0000
0000
0000
0000
0000
0000
0000
0000
0000
ENDCHAR

STARTCHAR CODE170
ENCODING 170
SWIDTH 451 0
DWIDTH 16 0
BBX 16 32 0 -2
BITMAP
0000
0000
0000
0000
0000
0000
0000
0000
0000
0000
0000
0000
7FFF
7FFF
7FFF
0007
0007
0007
0007
0007
0007
0000
0000
0000
0000
0000
0000
0000
0000
0000
0000
0000
ENDCHAR

STARTCHAR CODE171
ENCODING 171
SWIDTH 451 0
DWIDTH 16 0
BBX 16 32 0 -2
BITMAP
0000
001C
007C
01FC
01FC
01B8
0078
0070
0070
00F0
00E0
00E0
00E0
031C
3FFF
3FFF
3E07
01E0
07F0
0FF8
0F78
0E38
00F8
01F0
03E0
07C0
07B0
0EF0
0FF0
0F80
0000
0000
ENDCHAR

STARTCHAR CODE172
ENCODING 172
SWIDTH 451 0
DWIDTH 16 0
BBX 16 32 0 -2
BITMAP
0000
001C
007C
01FC
01FC
01B8
0078
0070
0070
00F0
00E0
00E0
00E0
031C
3FFF
3FFF
3E07
0078
00F8
01F8
03F8
07F0
0F70
0EEC
1FFC
1FFC
1FE0
01C0
01C0
01C0
0000
0000
ENDCHAR

STARTCHAR CODE173
ENCODING 173
SWIDTH 451 0
DWIDTH 16 0
BBX 16 32 0 -2
BITMAP
0000
0000
0000
0000
0000
0000
0000
0070
00F8
00F8
0070
0000
01C0
01C0
01C0
03C0
0380
0380
0380
0780
0700
0700
0F00
0E00
0E00
0E00
1E00
1C00
1C00
1C00
1C00
0000
ENDCHAR

STARTCHAR CODE174
ENCODING 174
SWIDTH 451 0
DWIDTH 16 0
BBX 16 32 0 -2
BITMAP
0000
0000
0000
0000
0000
0000
0000
0000
0000
0000
0000
0000
0770
0FF0
0EF0
0EE0
0FF0
0778
03B8
0000
0000
0000
0000
0000
0000
0000
0000
0000
0000
0000
0000
0000
ENDCHAR

STARTCHAR CODE175
ENCODING 175
SWIDTH 451 0
DWIDTH 16 0
BBX 16 32 0 -2
BITMAP
0000
0000
0000
0000
0000
0000
0000
0000
0000
0000
0000
0000
0EE0
0EF0
0FF0
0770
0FF0
1EE0
1DC0
0000
0000
0000
0000
0000
0000
0000
0000
0000
0000
0000
0000
0000
ENDCHAR

STARTCHAR CODE176
ENCODING 176
SWIDTH 451 0
DWIDTH 16 0
BBX 16 32 0 -2
BITMAP
6DB7
6DB7
6DB7
0000
6DB7
6DB7
0000
6DB7
6DB7
0000
6DB7
6DB7
0000
6DB7
6DB7
0000
6DB7
6DB7
0000
6DB7
6DB7
0000
6DB7
6DB7
0000
6DB7
6DB7
0000
6DB7
6DB7
0000
6DB7
ENDCHAR

STARTCHAR CODE177
ENCODING 177
SWIDTH 451 0
DWIDTH 16 0
BBX 16 32 0 -2
BITMAP
7777
7777
7777
7777
0000
7777
7777
7777
0000
7777
7777
7777
0000
7777
7777
7777
0000
7777
7777
7777
0000
7777
7777
7777
0000
7777
7777
7777
0000
7777
7777
7777
ENDCHAR

STARTCHAR CODE178
ENCODING 178
SWIDTH 451 0
DWIDTH 16 0
BBX 16 32 0 -2
BITMAP
7BDF
7BDF
7BDF
7BDF
7BDF
0000
7BDF
7BDF
7BDF
7BDF
0000
7BDF
7BDF
7BDF
7BDF
0000
7BDF
7BDF
7BDF
7BDF
0000
7BDF
7BDF
7BDF
7BDF
0000
7BDF
7BDF
7BDF
7BDF
0000
7BDF
ENDCHAR

STARTCHAR CODE179
ENCODING 179
SWIDTH 451 0
DWIDTH 16 0
BBX 16 32 0 -2
BITMAP
01C0
01C0
01C0
01C0
01C0
01C0
01C0
01C0
01C0
01C0
01C0
01C0
01C0
01C0
01C0
01C0
01C0
01C0
01C0
01C0
01C0
01C0
01C0
01C0
01C0
01C0
01C0
01C0
01C0
01C0
01C0
01C0
ENDCHAR

STARTCHAR CODE180
ENCODING 180
SWIDTH 451 0
DWIDTH 16 0
BBX 16 32 0 -2
BITMAP
01C0
01C0
01C0
01C0
01C0
01C0
01C0
01C0
01C0
01C0
01C0
01C0
01C0
01C0
FFC0
FFC0
FFC0
01C0
01C0
01C0
01C0
01C0
01C0
01C0
01C0
01C0
01C0
01C0
01C0
01C0
01C0
01C0
ENDCHAR

STARTCHAR CODE181
ENCODING 181
SWIDTH 451 0
DWIDTH 16 0
BBX 16 32 0 -2
BITMAP
01C0
01C0
01C0
01C0
01C0
01C0
01C0
01C0
01C0
01C0
01C0
01C0
FFC0
FFC0
FFC0
01C0
FFC0
FFC0
FFC0
01C0
01C0
01C0
01C0
01C0
01C0
01C0
01C0
01C0
01C0
01C0
01C0
01C0
ENDCHAR

STARTCHAR CODE182
ENCODING 182
SWIDTH 451 0
DWIDTH 16 0
BBX 16 32 0 -2
BITMAP
0770
0770
0770
0770
0770
0770
0770
0770
0770
0770
0770
0770
0770
0770
FF70
FF70
FF70
0770
0770
0770
0770
0770
0770
0770
0770
0770
0770
0770
0770
0770
0770
0770
ENDCHAR

STARTCHAR CODE183
ENCODING 183
SWIDTH 451 0
DWIDTH 16 0
BBX 16 32 0 -2
BITMAP
0000
0000
0000
0000
0000
0000
0000
0000
0000
0000
0000
0000
0000
0000
FFF0
FFF0
FFF0
0770
0770
0770
0770
0770
0770
0770
0770
0770
0770
0770
0770
0770
0770
0770
ENDCHAR

STARTCHAR CODE184
ENCODING 184
SWIDTH 451 0
DWIDTH 16 0
BBX 16 32 0 -2
BITMAP
0000
0000
0000
0000
0000
0000
0000
0000
0000
0000
0000
0000
FFC0
FFC0
FFC0
01C0
FFC0
FFC0
FFC0
01C0
01C0
01C0
01C0
01C0
01C0
01C0
01C0
01C0
01C0
01C0
01C0
01C0
ENDCHAR

STARTCHAR CODE185
ENCODING 185
SWIDTH 451 0
DWIDTH 16 0
BBX 16 32 0 -2
BITMAP
0770
0770
0770
0770
0770
0770
0770
0770
0770
0770
0770
0770
FF70
FF70
FF70
0070
FF70
FF70
FF70
0770
0770
0770
0770
0770
0770
0770
0770
0770
0770
0770
0770
0770
ENDCHAR

STARTCHAR CODE186
ENCODING 186
SWIDTH 451 0
DWIDTH 16 0
BBX 16 32 0 -2
BITMAP
0770
0770
0770
0770
0770
0770
0770
0770
0770
0770
0770
0770
0770
0770
0770
0770
0770
0770
0770
0770
0770
0770
0770
0770
0770
0770
0770
0770
0770
0770
0770
0770
ENDCHAR

STARTCHAR CODE187
ENCODING 187
SWIDTH 451 0
DWIDTH 16 0
BBX 16 32 0 -2
BITMAP
0000
0000
0000
0000
0000
0000
0000
0000
0000
0000
0000
0000
FFF0
FFF0
FFF0
0070
FF70
FF70
FF70
0770
0770
0770
0770
0770
0770
0770
0770
0770
0770
0770
0770
0770
ENDCHAR

STARTCHAR CODE188
ENCODING 188
SWIDTH 451 0
DWIDTH 16 0
BBX 16 32 0 -2
BITMAP
0770
0770
0770
0770
0770
0770
0770
0770
0770
0770
0770
0770
FF70
FF70
FF70
0070
FFF0
FFF0
FFF0
0000
0000
0000
0000
0000
0000
0000
0000
0000
0000
0000
0000
0000
ENDCHAR

STARTCHAR CODE189
ENCODING 189
SWIDTH 451 0
DWIDTH 16 0
BBX 16 32 0 -2
BITMAP
0770
0770
0770
0770
0770
0770
0770
0770
0770
0770
0770
0770
0770
0770
FFF0
FFF0
FFF0
0000
0000
0000
0000
0000
0000
0000
0000
0000
0000
0000
0000
0000
0000
0000
ENDCHAR

STARTCHAR CODE190
ENCODING 190
SWIDTH 451 0
DWIDTH 16 0
BBX 16 32 0 -2
BITMAP
01C0
01C0
01C0
01C0
01C0
01C0
01C0
01C0
01C0
01C0
01C0
01C0
FFC0
FFC0
FFC0
01C0
FFC0
FFC0
FFC0
0000
0000
0000
0000
0000
0000
0000
0000
0000
0000
0000
0000
0000
ENDCHAR

STARTCHAR CODE191
ENCODING 191
SWIDTH 451 0
DWIDTH 16 0
BBX 16 32 0 -2
BITMAP
0000
0000
0000
0000
0000
0000
0000
0000
0000
0000
0000
0000
0000
0000
FFC0
FFC0
FFC0
01C0
01C0
01C0
01C0
01C0
01C0
01C0
01C0
01C0
01C0
01C0
01C0
01C0
01C0
01C0
ENDCHAR

STARTCHAR CODE192
ENCODING 192
SWIDTH 451 0
DWIDTH 16 0
BBX 16 32 0 -2
BITMAP
01C0
01C0
01C0
01C0
01C0
01C0
01C0
01C0
01C0
01C0
01C0
01C0
01C0
01C0
01FF
01FF
01FF
0000
0000
0000
0000
0000
0000
0000
0000
0000
0000
0000
0000
0000
0000
0000
ENDCHAR

STARTCHAR CODE193
ENCODING 193
SWIDTH 451 0
DWIDTH 16 0
BBX 16 32 0 -2
BITMAP
01C0
01C0
01C0
01C0
01C0
01C0
01C0
01C0
01C0
01C0
01C0
01C0
01C0
01C0
FFFF
FFFF
FFFF
0000
0000
0000
0000
0000
0000
0000
0000
0000
0000
0000
0000
0000
0000
0000
ENDCHAR

STARTCHAR CODE194
ENCODING 194
SWIDTH 451 0
DWIDTH 16 0
BBX 16 32 0 -2
BITMAP
0000
0000
0000
0000
0000
0000
0000
0000
0000
0000
0000
0000
0000
0000
FFFF
FFFF
FFFF
01C0
01C0
01C0
01C0
01C0
01C0
01C0
01C0
01C0
01C0
01C0
01C0
01C0
01C0
01C0
ENDCHAR

STARTCHAR CODE195
ENCODING 195
SWIDTH 451 0
DWIDTH 16 0
BBX 16 32 0 -2
BITMAP
01C0
01C0
01C0
01C0
01C0
01C0
01C0
01C0
01C0
01C0
01C0
01C0
01C0
01C0
01FF
01FF
01FF
01C0
01C0
01C0
01C0
01C0
01C0
01C0
01C0
01C0
01C0
01C0
01C0
01C0
01C0
01C0
ENDCHAR

STARTCHAR CODE196
ENCODING 196
SWIDTH 451 0
DWIDTH 16 0
BBX 16 32 0 -2
BITMAP
0000
0000
0000
0000
0000
0000
0000
0000
0000
0000
0000
0000
0000
0000
FFFF
FFFF
FFFF
0000
0000
0000
0000
0000
0000
0000
0000
0000
0000
0000
0000
0000
0000
0000
ENDCHAR

STARTCHAR CODE197
ENCODING 197
SWIDTH 451 0
DWIDTH 16 0
BBX 16 32 0 -2
BITMAP
01C0
01C0
01C0
01C0
01C0
01C0
01C0
01C0
01C0
01C0
01C0
01C0
01C0
01C0
FFFF
FFFF
FFFF
01C0
01C0
01C0
01C0
01C0
01C0
01C0
01C0
01C0
01C0
01C0
01C0
01C0
01C0
01C0
ENDCHAR

STARTCHAR CODE198
ENCODING 198
SWIDTH 451 0
DWIDTH 16 0
BBX 16 32 0 -2
BITMAP
01C0
01C0
01C0
01C0
01C0
01C0
01C0
01C0
01C0
01C0
01C0
01C0
01FF
01FF
01FF
01C0
01FF
01FF
01FF
01C0
01C0
01C0
01C0
01C0
01C0
01C0
01C0
01C0
01C0
01C0
01C0
01C0
ENDCHAR

STARTCHAR CODE199
ENCODING 199
SWIDTH 451 0
DWIDTH 16 0
BBX 16 32 0 -2
BITMAP
0770
0770
0770
0770
0770
0770
0770
0770
0770
0770
0770
0770
0770
0770
077F
077F
077F
0770
0770
0770
0770
0770
0770
0770
0770
0770
0770
0770
0770
0770
0770
0770
ENDCHAR

STARTCHAR CODE200
ENCODING 200
SWIDTH 451 0
DWIDTH 16 0
BBX 16 32 0 -2
BITMAP
0770
0770
0770
0770
0770
0770
0770
0770
0770
0770
0770
0770
077F
077F
077F
0700
07FF
07FF
07FF
0000
0000
0000
0000
0000
0000
0000
0000
0000
0000
0000
0000
0000
ENDCHAR

STARTCHAR CODE201
ENCODING 201
SWIDTH 451 0
DWIDTH 16 0
BBX 16 32 0 -2
BITMAP
0000
0000
0000
0000
0000
0000
0000
0000
0000
0000
0000
0000
07FF
07FF
07FF
0700
077F
077F
077F
0770
0770
0770
0770
0770
0770
0770
0770
0770
0770
0770
0770
0770
ENDCHAR

STARTCHAR CODE202
ENCODING 202
SWIDTH 451 0
DWIDTH 16 0
BBX 16 32 0 -2
BITMAP
0770
0770
0770
0770
0770
0770
0770
0770
0770
0770
0770
0770
FF7F
FF7F
FF7F
0000
FFFF
FFFF
FFFF
0000
0000
0000
0000
0000
0000
0000
0000
0000
0000
0000
0000
0000
ENDCHAR

STARTCHAR CODE203
ENCODING 203
SWIDTH 451 0
DWIDTH 16 0
BBX 16 32 0 -2
BITMAP
0000
0000
0000
0000
0000
0000
0000
0000
0000
0000
0000
0000
FFFF
FFFF
FFFF
0000
FF7F
FF7F
FF7F
0770
0770
0770
0770
0770
0770
0770
0770
0770
0770
0770
0770
0770
ENDCHAR

STARTCHAR CODE204
ENCODING 204
SWIDTH 451 0
DWIDTH 16 0
BBX 16 32 0 -2
BITMAP
0770
0770
0770
0770
0770
0770
0770
0770
0770
0770
0770
0770
077F
077F
077F
0700
077F
077F
077F
0770
0770
0770
0770
0770
0770
0770
0770
0770
0770
0770
0770
0770
ENDCHAR

STARTCHAR CODE205
ENCODING 205
SWIDTH 451 0
DWIDTH 16 0
BBX 16 32 0 -2
BITMAP
0000
0000
0000
0000
0000
0000
0000
0000
0000
0000
0000
0000
FFFF
FFFF
FFFF
0000
FFFF
FFFF
0000
0000
0000
0000
0000
0000
0000
0000
0000
0000
0000
0000
0000
0000
ENDCHAR

STARTCHAR CODE206
ENCODING 206
SWIDTH 451 0
DWIDTH 16 0
BBX 16 32 0 -2
BITMAP
0770
0770
0770
0770
0770
0770
0770
0770
0770
0770
0770
0770
FF7F
FF7F
FF7F
0000
FF7F
FF7F
FF7F
0770
0770
0770
0770
0770
0770
0770
0770
0770
0770
0770
0770
0770
ENDCHAR

STARTCHAR CODE207
ENCODING 207
SWIDTH 451 0
DWIDTH 16 0
BBX 16 32 0 -2
BITMAP
01C0
01C0
01C0
01C0
01C0
01C0
01C0
01C0
01C0
01C0
01C0
01C0
FFFF
FFFF
FFFF
0000
FFFF
FFFF
FFFF
0000
0000
0000
0000
0000
0000
0000
0000
0000
0000
0000
0000
0000
ENDCHAR

STARTCHAR CODE208
ENCODING 208
SWIDTH 451 0
DWIDTH 16 0
BBX 16 32 0 -2
BITMAP
0770
0770
0770
0770
0770
0770
0770
0770
0770
0770
0770
0770
0770
0770
FFFF
FFFF
FFFF
0000
0000
0000
0000
0000
0000
0000
0000
0000
0000
0000
0000
0000
0000
0000
ENDCHAR

STARTCHAR CODE209
ENCODING 209
SWIDTH 451 0
DWIDTH 16 0
BBX 16 32 0 -2
BITMAP
0000
0000
0000
0000
0000
0000
0000
0000
0000
0000
0000
0000
FFFF
FFFF
FFFF
0000
FFFF
FFFF
FFFF
01C0
01C0
01C0
01C0
01C0
01C0
01C0
01C0
01C0
01C0
01C0
01C0
01C0
ENDCHAR

STARTCHAR CODE210
ENCODING 210
SWIDTH 451 0
DWIDTH 16 0
BBX 16 32 0 -2
BITMAP
0000
0000
0000
0000
0000
0000
0000
0000
0000
0000
0000
0000
0000
0000
FFFF
FFFF
FFFF
0770
0770
0770
0770
0770
0770
0770
0770
0770
0770
0770
0770
0770
0778
0778
ENDCHAR

STARTCHAR CODE211
ENCODING 211
SWIDTH 451 0
DWIDTH 16 0
BBX 16 32 0 -2
BITMAP
0770
0770
0770
0770
0770
0770
0770
0770
0770
0770
0770
0770
0770
0770
07FF
07FF
07FF
0000
0000
0000
0000
0000
0000
0000
0000
0000
0000
0000
0000
0000
0000
0000
ENDCHAR

STARTCHAR CODE212
ENCODING 212
SWIDTH 451 0
DWIDTH 16 0
BBX 16 32 0 -2
BITMAP
01C0
01C0
01C0
01C0
01C0
01C0
01C0
01C0
01C0
01C0
01C0
01C0
01FF
01FF
01FF
01C0
01FF
01FF
01FF
0000
0000
0000
0000
0000
0000
0000
0000
0000
0000
0000
0000
0000
ENDCHAR

STARTCHAR CODE213
ENCODING 213
SWIDTH 451 0
DWIDTH 16 0
BBX 16 32 0 -2
BITMAP
0000
0000
0000
0000
0000
0000
0000
0000
0000
0000
0000
0000
01FF
01FF
01FF
01C0
01FF
01FF
01FF
01C0
01C0
01C0
01C0
01C0
01C0
01C0
01C0
01C0
01C0
01C0
01C0
01C0
ENDCHAR

STARTCHAR CODE214
ENCODING 214
SWIDTH 451 0
DWIDTH 16 0
BBX 16 32 0 -2
BITMAP
0000
0000
0000
0000
0000
0000
0000
0000
0000
0000
0000
0000
0000
0000
07FF
07FF
07FF
0770
0770
0770
0770
0770
0770
0770
0770
0770
0770
0770
0770
0770
0770
0770
ENDCHAR

STARTCHAR CODE215
ENCODING 215
SWIDTH 451 0
DWIDTH 16 0
BBX 16 32 0 -2
BITMAP
0770
0770
0770
0770
0770
0770
0770
0770
0770
0770
0770
0770
0770
0770
FFFF
FFFF
FFFF
0770
0770
0770
0770
0770
0770
0770
0770
0770
0770
0770
0770
0770
0770
0770
ENDCHAR

STARTCHAR CODE216
ENCODING 216
SWIDTH 451 0
DWIDTH 16 0
BBX 16 32 0 -2
BITMAP
01C0
01C0
01C0
01C0
01C0
01C0
01C0
01C0
01C0
01C0
01C0
01C0
FFFF
FFFF
FFFF
01C0
FFFF
FFFF
FFFF
01C0
01C0
01C0
01C0
01C0
01C0
01C0
01C0
01C0
01C0
01C0
01C0
01C0
ENDCHAR

STARTCHAR CODE217
ENCODING 217
SWIDTH 451 0
DWIDTH 16 0
BBX 16 32 0 -2
BITMAP
01C0
01C0
01C0
01C0
01C0
01C0
01C0
01C0
01C0
01C0
01C0
01C0
01C0
01C0
FFC0
FFC0
FFC0
0000
0000
0000
0000
0000
0000
0000
0000
0000
0000
0000
0000
0000
0000
0000
ENDCHAR

STARTCHAR CODE218
ENCODING 218
SWIDTH 451 0
DWIDTH 16 0
BBX 16 32 0 -2
BITMAP
0000
0000
0000
0000
0000
0000
0000
0000
0000
0000
0000
0000
0000
0000
01FF
01FF
01FF
01C0
01C0
01C0
01C0
01C0
01C0
01C0
01C0
01C0
01C0
01C0
01C0
01C0
01C0
01C0
ENDCHAR

STARTCHAR CODE219
ENCODING 219
SWIDTH 451 0
DWIDTH 16 0
BBX 16 32 0 -2
BITMAP
FFFF
FFFF
FFFF
FFFF
FFFF
FFFF
FFFF
FFFF
FFFF
FFFF
FFFF
FFFF
FFFF
FFFF
FFFF
FFFF
FFFF
FFFF
FFFF
FFFF
FFFF
FFFF
FFFF
FFFF
FFFF
FFFF
FFFF
FFFF
FFFF
FFFF
FFFF
FFFF
ENDCHAR

STARTCHAR CODE220
ENCODING 220
SWIDTH 451 0
DWIDTH 16 0
BBX 16 32 0 -2
BITMAP
0000
0000
0000
0000
0000
0000
0000
0000
0000
0000
0000
0000
0000
0000
0000
FFFF
FFFF
FFFF
FFFF
FFFF
FFFF
FFFF
FFFF
FFFF
FFFF
FFFF
FFFF
FFFF
FFFF
FFFF
FFFF
FFFF
ENDCHAR

STARTCHAR CODE221
ENCODING 221
SWIDTH 451 0
DWIDTH 16 0
BBX 16 32 0 -2
BITMAP
FF80
FF80
FF80
FF80
FF80
FF80
FF80
FF80
FF80
FF80
FF80
FF80
FF80
FF80
FF80
FF80
FF80
FF80
FF80
FF80
FF80
FF80
FF80
FF80
FF80
FF80
FF80
FF80
FF80
FF80
FF80
FF80
ENDCHAR

STARTCHAR CODE222
ENCODING 222
SWIDTH 451 0
DWIDTH 16 0
BBX 16 32 0 -2
BITMAP
00FF
00FF
00FF
00FF
00FF
00FF
00FF
00FF
00FF
00FF
00FF
00FF
00FF
00FF
00FF
00FF
00FF
00FF
00FF
00FF
00FF
00FF
00FF
00FF
00FF
00FF
00FF
00FF
00FF
00FF
00FF
00FF
ENDCHAR

STARTCHAR CODE223
ENCODING 223
SWIDTH 451 0
DWIDTH 16 0
BBX 16 32 0 -2
BITMAP
FFFF
FFFF
FFFF
FFFF
FFFF
FFFF
FFFF
FFFF
FFFF
FFFF
FFFF
FFFF
FFFF
FFFF
FFFF
FFFF
0000
0000
0000
0000
0000
0000
0000
0000
0000
0000
0000
0000
0000
0000
0000
0000
ENDCHAR

STARTCHAR CODE224
ENCODING 224
SWIDTH 451 0
DWIDTH 16 0
BBX 16 32 0 -2
BITMAP
0000
0000
0000
0000
0000
0000
0000
0000
0000
0000
0000
0000
0000
001C
07DC
0FFC
1FF8
1EF8
1C70
1C70
1CF0
1CF0
1DF7
1FFF
0FBF
079E
0000
0000
0000
0000
0000
0000
ENDCHAR

STARTCHAR CODE225
ENCODING 225
SWIDTH 451 0
DWIDTH 16 0
BBX 16 32 0 -2
BITMAP
0000
0000
0000
00F8
03FC
03FE
079E
070E
0F0E
0E1E
0E7C
0FFC
1DF0
1FC0
1FF8
1CFC
1C3E
1C1E
3C0E
380E
380E
381E
3C7C
3FFC
3FF0
77C0
7000
7000
7000
7000
0000
0000
ENDCHAR

STARTCHAR CODE226
ENCODING 226
SWIDTH 451 0
DWIDTH 16 0
BBX 16 32 0 -2
BITMAP
0000
0000
0000
01FF
0FFF
0FFF
0F00
0700
0F00
0E00
0E00
1E00
1C00
1C00
3C00
3800
3800
3800
3800
7800
7000
7000
7000
7000
7000
7000
0000
0000
0000
0000
0000
0000
ENDCHAR

STARTCHAR CODE227
ENCODING 227
SWIDTH 451 0
DWIDTH 16 0
BBX 16 32 0 -2
BITMAP
0000
0000
0000
0000
0000
0000
0000
0000
0000
0000
0000
0000
0000
00FE
0FFE
0FFE
0FB8
03F8
0370
0370
0770
07F0
06EE
0EFE
0EFE
0E78
0000
0000
0000
0000
0000
0000
ENDCHAR

STARTCHAR CODE228
ENCODING 228
SWIDTH 451 0
DWIDTH 16 0
BBX 16 32 0 -2
BITMAP
0000
0000
0000
01FF
0FFF
0FFF
0F00
03C0
03E0
01F0
00F8
0078
003C
005C
01FC
03F0
07C0
0F80
1F00
3E00
3C00
7BF0
7FF0
7FF0
7E00
7000
0000
0000
0000
0000
0000
0000
ENDCHAR

STARTCHAR CODE229
ENCODING 229
SWIDTH 451 0
DWIDTH 16 0
BBX 16 32 0 -2
BITMAP
0000
0000
0000
0000
0000
0000
0000
0000
0070
00F0
01F0
03E0
07C0
0FB0
0FF8
1EFC
1C3C
3C1C
381C
383C
3838
3C78
1EF0
1FF0
0FE0
0780
0000
0000
0000
0000
0000
0000
ENDCHAR

STARTCHAR CODE230
ENCODING 230
SWIDTH 451 0
DWIDTH 16 0
BBX 16 32 0 -2
BITMAP
0000
0000
0000
0000
0000
0000
0000
0000
0000
0000
0000
0000
0000
0000
0E70
0E70
0EF0
1EE0
1CE0
1CE0
1CE0
1DE0
3FD8
3BB8
3FF8
36E0
7800
7000
7000
7000
0000
0000
ENDCHAR

STARTCHAR CODE231
ENCODING 231
SWIDTH 451 0
DWIDTH 16 0
BBX 16 32 0 -2
BITMAP
0000
0000
0000
0000
0000
0000
0000
0000
0000
0000
0000
0000
0000
007C
07FC
07FC
07E0
00E0
01E0
01C0
03C0
0380
03F0
0370
03F0
01C0
0000
0000
0000
0000
0000
0000
ENDCHAR

STARTCHAR CODE232
ENCODING 232
SWIDTH 451 0
DWIDTH 16 0
BBX 16 32 0 -2
BITMAP
0000
000E
000E
03EE
1FFE
1FFC
1DBE
03FF
0777
0F77
0EF7
1EE7
1CE7
3DE7
39CF
39CE
7BCE
738E
739E
779C
773C
7778
7FF8
6EF0
3DE0
3FC0
1F00
1C00
1C00
0000
0000
0000
ENDCHAR

STARTCHAR CODE233
ENCODING 233
SWIDTH 451 0
DWIDTH 16 0
BBX 16 32 0 -2
BITMAP
0000
0000
0000
03F0
1FFC
1FFE
1DDE
038E
078F
0707
0F07
0E07
1EFF
1DFF
3FFE
3F8E
381E
781C
703C
7038
7078
70F0
71F0
7BE0
3FC0
3F80
0E00
0000
0000
0000
0000
0000
ENDCHAR

STARTCHAR CODE234
ENCODING 234
SWIDTH 451 0
DWIDTH 16 0
BBX 16 32 0 -2
BITMAP
0000
0000
0000
01F0
07FC
0FFE
1F1E
3E0F
3C07
7807
7003
7003
7003
7003
7003
7003
7007
7007
700F
781E
3C3E
3EFC
1FF8
EDE6
FDDE
FDFE
3DF0
0000
0000
0000
0000
0000
ENDCHAR

STARTCHAR CODE235
ENCODING 235
SWIDTH 451 0
DWIDTH 16 0
BBX 16 32 0 -2
BITMAP
0000
0000
0078
01FE
01FF
03CF
0387
0387
03C0
01C0
01E0
00E0
07E0
0FF0
1FF0
3E70
3C70
3870
7870
7070
70F0
70E0
71E0
7BE0
3FC0
3F80
0E00
0000
0000
0000
0000
0000
ENDCHAR

STARTCHAR CODE236
ENCODING 236
SWIDTH 451 0
DWIDTH 16 0
BBX 16 32 0 -2
BITMAP
0000
0000
0000
0000
0000
0000
0000
0000
070F
1FBF
1FBF
3BFB
39F3
39F3
39E7
7BE7
73E7
77EF
7EFE
3F7E
1C3C
0000
0000
0000
0000
0000
0000
0000
0000
0000
0000
0000
ENDCHAR

STARTCHAR CODE237
ENCODING 237
SWIDTH 451 0
DWIDTH 16 0
BBX 16 32 0 -2
BITMAP
0000
0000
0000
0000
0000
0000
0000
0000
0000
0000
0000
0000
0000
001C
01DC
03FC
07F8
0778
0EF8
0FF8
0DB8
0FF8
0F70
0EF0
1FE0
3BC0
3800
0000
0000
0000
0000
0000
ENDCHAR

STARTCHAR CODE238
ENCODING 238
SWIDTH 451 0
DWIDTH 16 0
BBX 16 32 0 -2
BITMAP
0000
0000
0000
0000
0000
0000
0000
0000
0000
0000
0000
0000
0000
03E0
07F0
0FF0
0F70
0E80
0FC0
1FC0
1E00
1C00
1E70
1FF0
0FF0
07C0
0000
0000
0000
0000
0000
0000
ENDCHAR

STARTCHAR CODE239
ENCODING 239
SWIDTH 451 0
DWIDTH 16 0
BBX 16 32 0 -2
BITMAP
0000
0000
0000
00F8
03FE
07FF
0F8F
0F07
0E03
0E03
1E03
1C03
1C03
1C07
1C07
1C07
1C07
3C07
380F
380E
381E
381C
783C
7038
7078
F0F0
E0F0
E0E0
0000
0000
0000
0000
ENDCHAR

STARTCHAR CODE240
ENCODING 240
SWIDTH 451 0
DWIDTH 16 0
BBX 16 32 0 -2
BITMAP
0000
0000
0000
0000
0000
0000
0000
0000
0000
0000
0000
0000
0000
0FF8
3FFE
3FFE
380E
07F0
3FFE
3FFE
380E
07F0
3FFE
3FFE
380E
0000
0000
0000
0000
0000
0000
0000
ENDCHAR

STARTCHAR CODE241
ENCODING 241
SWIDTH 451 0
DWIDTH 16 0
BBX 16 32 0 -2
BITMAP
0000
0000
0000
0000
0000
0000
0000
0000
0000
00E0
00E0
00E0
01E0
01C0
0FF8
3FFE
3FFE
39CE
01C0
01C0
01C0
0000
0FF8
3FFE
3FFE
380E
0000
0000
0000
0000
0000
0000
ENDCHAR

STARTCHAR CODE242
ENCODING 242
SWIDTH 451 0
DWIDTH 16 0
BBX 16 32 0 -2
BITMAP
0000
0000
0000
0000
0000
0000
0000
0000
0000
0070
0070
0078
0038
003C
001C
001E
002E
00FE
03F8
0FE0
0F80
0E00
01F8
3FFE
3FFF
380F
0000
0000
0000
0000
0000
0000
ENDCHAR

STARTCHAR CODE243
ENCODING 243
SWIDTH 451 0
DWIDTH 16 0
BBX 16 32 0 -2
BITMAP
0000
0000
0000
0000
0000
0000
0000
0000
0000
0038
00F8
03F8
0FE0
1F80
1E00
1C00
0E00
0F00
0700
0780
0380
0380
0C78
3FFE
3FFE
380E
0000
0000
0000
0000
0000
0000
ENDCHAR

STARTCHAR CODE244
ENCODING 244
SWIDTH 451 0
DWIDTH 16 0
BBX 16 32 0 -2
BITMAP
0000
0000
0000
0000
0000
01C0
03E0
07E0
07E0
06E0
0700
0700
0700
0700
0780
0380
0380
0380
0380
0380
0380
0380
0380
0380
03C0
01C0
01C0
01C0
01C0
01C0
01C0
0000
ENDCHAR

STARTCHAR CODE245
ENCODING 245
SWIDTH 451 0
DWIDTH 16 0
BBX 16 32 0 -2
BITMAP
0380
0380
0380
0380
0380
03C0
01C0
01C0
01C0
01C0
01C0
01C0
01C0
01C0
01C0
01E0
00E0
00E0
00E0
00E0
00E0
06E0
07E0
07E0
07C0
0380
0000
0000
0000
0000
0000
0000
ENDCHAR

STARTCHAR CODE246
ENCODING 246
SWIDTH 451 0
DWIDTH 16 0
BBX 16 32 0 -2
BITMAP
0000
0000
0000
0000
0000
0000
0000
0000
0000
01C0
03E0
03E0
01C0
0000
0FF8
3FFE
3FFE
380E
0380
07C0
07C0
0380
0000
0000
0000
0000
0000
0000
0000
0000
0000
0000
ENDCHAR

STARTCHAR CODE247
ENCODING 247
SWIDTH 451 0
DWIDTH 16 0
BBX 16 32 0 -2
BITMAP
0000
0000
0000
0000
0000
0000
0000
0000
0000
0000
0000
0000
0F8E
3FFE
3FFE
38F8
0706
3FFE
3FFE
39F8
0000
0000
0000
0000
0000
0000
0000
0000
0000
0000
0000
0000
ENDCHAR

STARTCHAR CODE248
ENCODING 248
SWIDTH 451 0
DWIDTH 16 0
BBX 16 32 0 -2
BITMAP
0000
0F00
1F80
3FC0
3BC0
39C0
3DC0
3FC0
1F80
0F00
0000
0000
0000
0000
0000
0000
0000
0000
0000
0000
0000
0000
0000
0000
0000
0000
0000
0000
0000
0000
0000
0000
ENDCHAR

STARTCHAR CODE249
ENCODING 249
SWIDTH 451 0
DWIDTH 16 0
BBX 16 32 0 -2
BITMAP
0000
0000
0000
0000
0000
0000
0000
0000
0000
0000
0000
03C0
07E0
0FF0
0FF0
0FF0
0FF0
0FF0
07E0
03C0
0000
0000
0000
0000
0000
0000
0000
0000
0000
0000
0000
0000
ENDCHAR

STARTCHAR CODE250
ENCODING 250
SWIDTH 451 0
DWIDTH 16 0
BBX 16 32 0 -2
BITMAP
0000
0000
0000
0000
0000
0000
0000
0000
0000
0000
0000
0000
03C0
07E0
07E0
07E0
07E0
03C0
0000
0000
0000
0000
0000
0000
0000
0000
0000
0000
0000
0000
0000
0000
ENDCHAR

STARTCHAR CODE251
ENCODING 251
SWIDTH 451 0
DWIDTH 16 0
BBX 16 32 0 -2
BITMAP
00FF
00FF
00FF
00E0
00E0
00E0
00E0
00E0
00E0
00E0
00E0
00E0
00E0
01E0
01C0
01C0
01C0
01C0
39C0
79C0
FBC0
FB80
DB80
DF80
0F80
0F80
0F00
0700
0700
0700
0000
0000
ENDCHAR

STARTCHAR CODE252
ENCODING 252
SWIDTH 451 0
DWIDTH 16 0
BBX 16 32 0 -2
BITMAP
0000
0000
03B8
03F8
0378
03F8
07F0
0770
0770
0770
0778
0778
0078
0038
0000
0000
0000
0000
0000
0000
0000
0000
0000
0000
0000
0000
0000
0000
0000
0000
0000
0000
ENDCHAR

STARTCHAR CODE253
ENCODING 253
SWIDTH 451 0
DWIDTH 16 0
BBX 16 32 0 -2
BITMAP
0000
03E0
07F0
0FF8
0F78
0E38
00F0
01F0
03E0
07C0
07B8
0EF8
0FF8
0F80
0000
0000
0000
0000
0000
0000
0000
0000
0000
0000
0000
0000
0000
0000
0000
0000
0000
0000
ENDCHAR

STARTCHAR CODE254
ENCODING 254
SWIDTH 451 0
DWIDTH 16 0
BBX 16 32 0 -2
BITMAP
0000
0000
0000
0000
0000
0FF8
0FF8
0FF8
0FF8
0FF8
0FF8
0FF8
0FF8
0FF8
0FF8
0FF8
0FF8
0FF8
0FF8
0FF8
0FF8
0FF8
0FF8
0FF8
0FF8
0FF8
0000
0000
0000
0000
0000
0000
ENDCHAR

STARTCHAR CODE255
ENCODING 255
SWIDTH 451 0
DWIDTH 16 0
BBX 16 32 0 -2
BITMAP
0000
0000
0000
0000
0000
0000
0000
0000
0000
0000
0000
0000
0000
0000
0000
0000
0000
0000
0000
0000
0000
0000
0000
0000
0000
0000
0000
0000
0000
0000
0000
0000
ENDCHAR
ENDFONT
